<svg width="32" height="26" viewBox="0 0 32 26" fill="none" xmlns="http://www.w3.org/2000/svg">
<path d="M30.7325 9.78582C29.8875 7.80944 28.7505 6.10733 27.322 4.67847C25.8935 3.24987 24.191 2.11304 22.2145 1.26786C20.238 0.422683 18.167 0 16.0001 0C13.8332 0 11.7618 0.422746 9.78571 1.26786C7.80958 2.11335 6.10721 3.24987 4.67867 4.67847C3.24981 6.10733 2.11317 7.80944 1.2678 9.78582C0.422621 11.7622 0 13.8334 0 16.0002C0 19.119 0.839238 21.9944 2.51784 24.6254C2.74388 24.9706 3.06536 25.1431 3.48211 25.1431H28.518C28.9345 25.1431 29.256 24.9706 29.482 24.6254C31.1608 21.9826 32 19.1074 32 16.0002C32 13.8334 31.5776 11.7622 30.7325 9.78582ZM14.3838 2.95553C14.8305 2.50902 15.369 2.28573 16 2.28573C16.631 2.28573 17.1695 2.50908 17.6161 2.95553C18.0626 3.40179 18.286 3.94056 18.286 4.57152C18.286 5.20248 18.0626 5.74106 17.6161 6.18751C17.1695 6.63396 16.631 6.85731 16 6.85731C15.369 6.85731 14.8303 6.63396 14.3838 6.18751C13.9376 5.741 13.7141 5.20248 13.7141 4.57152C13.7141 3.94056 13.9373 3.40185 14.3838 2.95553ZM6.18758 17.6162C5.74113 18.0625 5.20236 18.2864 4.5714 18.2864C3.94063 18.2864 3.40186 18.0625 2.95541 17.6162C2.5089 17.1701 2.28586 16.6312 2.28586 16.0002C2.28586 15.3692 2.5089 14.8307 2.95541 14.3842C3.40192 13.9377 3.94063 13.7144 4.5714 13.7144C5.20236 13.7144 5.74138 13.9377 6.18758 14.3842C6.63385 14.8307 6.85726 15.3692 6.85726 16.0002C6.85726 16.6312 6.63385 17.1697 6.18758 17.6162ZM9.61627 9.6162C9.16957 10.0626 8.63105 10.286 8.00003 10.286C7.36901 10.286 6.8303 10.0623 6.38379 9.6162C5.93752 9.16993 5.71417 8.63117 5.71417 8.00021C5.71417 7.36925 5.93727 6.83067 6.38379 6.38422C6.83049 5.9377 7.36901 5.71442 8.00003 5.71442C8.63099 5.71442 9.16976 5.93777 9.61627 6.38422C10.0625 6.83073 10.2859 7.36925 10.2859 8.00021C10.2859 8.63098 10.0625 9.16968 9.61627 9.6162ZM19.732 9.76806L17.9283 16.5894C18.524 16.9939 18.9525 17.5355 19.2145 18.2143C19.476 18.8929 19.512 19.5893 19.3215 20.3036C19.0834 21.2203 18.5536 21.9168 17.732 22.3928C16.9105 22.869 16.0417 22.9883 15.1247 22.7501C14.2083 22.512 13.5116 21.9823 13.0356 21.1608C12.5595 20.3391 12.4405 19.4704 12.6786 18.5534C12.869 17.8394 13.244 17.2531 13.8036 16.7951C14.363 16.3364 14.9998 16.0778 15.7141 16.0181L17.5177 9.19664C17.601 8.88717 17.7795 8.65181 18.0532 8.49106C18.3273 8.33063 18.6127 8.29192 18.9105 8.37517C19.2085 8.4586 19.4374 8.63404 19.5979 8.9018C19.7591 9.16993 19.8035 9.45858 19.732 9.76806ZM22.384 9.6162C21.9375 9.16993 21.714 8.63117 21.714 8.00021C21.714 7.36925 21.9375 6.83067 22.384 6.38422C22.8305 5.93777 23.369 5.71442 24 5.71442C24.631 5.71442 25.1695 5.93777 25.616 6.38422C26.0625 6.83067 26.286 7.36925 26.286 8.00021C26.286 8.63098 26.0625 9.16975 25.616 9.6162C25.1695 10.0626 24.631 10.286 24 10.286C23.369 10.286 22.8305 10.0626 22.384 9.6162ZM29.0446 17.6162C28.5981 18.0625 28.0596 18.2864 27.4286 18.2864C26.7976 18.2864 26.2591 18.0625 25.8125 17.6162C25.366 17.1701 25.1428 16.6312 25.1428 16.0002C25.1428 15.3692 25.366 14.8307 25.8125 14.3842C26.2591 13.9377 26.7976 13.7144 27.4286 13.7144C28.0596 13.7144 28.5981 13.9377 29.0446 14.3842C29.4911 14.8307 29.7141 15.3692 29.7141 16.0002C29.7141 16.6312 29.491 17.1697 29.0446 17.6162Z" fill="white"/>
</svg>
