<svg width="31" height="31" viewBox="0 0 31 31" fill="none" xmlns="http://www.w3.org/2000/svg">
<path d="M30.8219 0.177342C30.7083 0.0638164 30.5543 0 30.3936 0L15.4995 0.000787109C15.1651 0.000787109 14.894 0.271916 14.894 0.606256V2.33771L9.15487 3.87555C8.83185 3.96213 8.64016 4.29411 8.72674 4.61706L11.7012 15.7178L9.12805 18.291C8.80055 17.8128 8.25066 17.4984 7.62866 17.4984H1.81635C0.814779 17.4984 0 18.3132 0 19.3147V29.1836C0 30.1852 0.814779 31 1.81635 31H7.62872C8.47959 31 9.19538 30.4117 9.39155 29.6207L10.1114 30.2486C10.6672 30.7332 11.3792 31.0001 12.1166 31.0001H30.3937C30.7281 31.0001 30.9992 30.7289 30.9992 30.3946V0.605469C30.9991 0.444898 30.9354 0.290867 30.8219 0.177342ZM8.23407 29.1837C8.23407 29.5175 7.96246 29.7891 7.6286 29.7891H1.81629C1.48243 29.7891 1.21082 29.5175 1.21082 29.1837V19.3148C1.21082 18.9809 1.48243 18.7093 1.81629 18.7093H4.11701V25.684C4.11701 26.0183 4.38813 26.2895 4.72247 26.2895C5.05681 26.2895 5.32794 26.0183 5.32794 25.684V18.7093H7.62866C7.96252 18.7093 8.23413 18.9809 8.23413 19.3148V29.1837H8.23407ZM10.0531 4.88849L14.894 3.59134V5.8349L14.4883 5.94364C14.3331 5.98524 14.2009 6.08666 14.1206 6.22573C14.0403 6.36481 14.0185 6.53004 14.0601 6.68516C14.2928 7.55346 13.7757 8.44913 12.9074 8.68182C12.7521 8.72347 12.6197 8.82507 12.5394 8.96445C12.4592 9.10377 12.4376 9.2693 12.4796 9.42454L14.8396 18.1638H13.6244L12.9982 15.7138C12.9783 15.6358 12.9434 15.5639 12.8967 15.5015L10.0531 4.88849ZM14.894 8.61152V13.7205L13.7897 9.63149C14.251 9.3933 14.6285 9.03692 14.894 8.61152ZM23.5925 29.7891H12.1165C11.6718 29.7891 11.2423 29.6281 10.9072 29.3359L9.44501 28.0607V19.6866L12.0884 17.0433L12.5678 18.919C12.6363 19.1871 12.8777 19.3745 13.1544 19.3745L25.0581 19.3752C25.5255 19.3752 25.9058 19.7555 25.9058 20.2229C25.9058 20.6903 25.5255 21.0706 25.0581 21.0706H18.9586C18.6243 21.0706 18.3532 21.3417 18.3532 21.676C18.3532 22.0104 18.6243 22.2815 18.9586 22.2815H26.9532C27.4207 22.2815 27.8009 22.6617 27.8009 23.1291C27.8009 23.5966 27.4207 23.9768 26.9532 23.9768H18.9586C18.6243 23.9768 18.3532 24.2479 18.3532 24.5823C18.3532 24.9166 18.6243 25.1877 18.9586 25.1877H25.6577C26.1251 25.1877 26.5054 25.568 26.5054 26.0354C26.5054 26.5028 26.1251 26.8831 25.6577 26.8831H18.9586C18.6243 26.8831 18.3532 27.1542 18.3532 27.4885C18.3532 27.8229 18.6243 28.094 18.9586 28.094H23.5925C24.0599 28.094 24.4401 28.4742 24.4401 28.9416C24.4401 29.4088 24.0598 29.7891 23.5925 29.7891ZM29.7883 29.7891H29.7882H25.4677C25.5851 29.5303 25.651 29.2435 25.651 28.9414C25.651 28.6393 25.5851 28.3525 25.4677 28.0938H25.6577C26.7928 28.0938 27.7162 27.1703 27.7162 26.0352C27.7162 25.7041 27.6372 25.3913 27.4977 25.1139C28.3694 24.8745 29.0117 24.0756 29.0117 23.129C29.0117 22.6698 28.8605 22.2453 28.6054 21.9027V14.2289C28.6054 13.8946 28.3342 13.6235 27.9999 13.6235C27.6656 13.6235 27.3944 13.8946 27.3944 14.2289V21.1187C27.2521 21.0875 27.1046 21.0706 26.9531 21.0706H26.9332C27.0506 20.8118 27.1166 20.525 27.1166 20.2229C27.1166 19.0878 26.1931 18.1644 25.0581 18.1644H24.0848C25.1182 17.7212 25.8441 16.6939 25.8441 15.5C25.8441 13.9022 24.5443 12.6023 22.9465 12.6023C21.3488 12.6023 20.0489 13.9022 20.0489 15.5C20.0489 16.6939 20.7748 17.7212 21.8082 18.1644H18.4985V6.65186C19.5801 6.41615 20.4336 5.56274 20.6693 4.48107H25.2236C25.4593 5.56274 26.3128 6.41615 27.3944 6.65186V8.53426C27.3944 8.8686 27.6655 9.13973 27.9998 9.13973C28.3342 9.13973 28.6053 8.8686 28.6053 8.53426V6.1113C28.6053 5.77696 28.3342 5.50583 27.9998 5.50583C27.1009 5.50583 26.3697 4.77448 26.3697 3.87561C26.3697 3.54127 26.0986 3.27014 25.7642 3.27014H20.1287C19.7944 3.27014 19.5233 3.54127 19.5233 3.87561C19.5233 4.77455 18.792 5.50583 17.8931 5.50583C17.5588 5.50583 17.2876 5.77696 17.2876 6.1113V18.1643H16.105V1.2116L29.7883 1.21094V29.7891ZM22.9466 17.1867C22.0165 17.1867 21.2599 16.4301 21.2599 15.5001C21.2599 14.5701 22.0166 13.8133 22.9466 13.8133C23.8766 13.8133 24.6333 14.57 24.6333 15.5C24.6333 16.43 23.8767 17.1867 22.9466 17.1867Z" fill="white"/>
</svg>
