<svg width="497" height="353" viewBox="0 0 497 353" fill="none" xmlns="http://www.w3.org/2000/svg">
<g clip-path="url(#clip0_1493_1159)">
<path opacity="0.1" d="M281.118 48.0598C249.261 48.1036 218.597 38.8127 189.267 28.4913C159.937 18.17 130.833 6.61214 99.5687 1.71454C79.4615 -1.43361 56.5969 -1.14422 40.8793 10.2864C25.7498 21.283 21.3687 39.4835 19.2548 56.2985C17.6652 68.948 16.9321 82.2246 22.8859 93.7956C27.0199 101.828 34.0945 108.449 39.0808 116.104C56.486 142.737 46.019 176.757 29.1039 204.007C21.1727 216.792 11.8819 229.047 5.88553 242.565C-0.110846 256.083 -2.56991 271.411 3.54579 284.754C9.60609 297.978 23.295 307.576 37.9855 314.131C67.8182 327.469 102.552 330.327 136.352 331.428C211.173 333.87 286.138 328.889 360.903 323.908C388.571 322.067 416.362 320.212 443.459 314.876C458.503 311.916 473.995 307.523 484.662 297.894C498.202 285.67 500.972 265.711 491.119 251.365C474.596 227.302 431.027 222.764 419.179 196.729C412.646 182.395 418.28 165.957 426.578 152.141C444.375 122.497 475.009 95.944 475.525 62.7877C475.878 40.0184 459.948 17.806 436.154 7.90998C411.214 -2.45522 377.209 0.210619 359.735 19.5292C341.768 39.4309 309.246 48.0291 281.118 48.0598Z" fill="#20BDB5"/>
<path d="M422.998 282.965C422.998 282.965 417.76 279.409 412.569 281.939C412.569 281.939 414.167 285.105 420.739 284.806L422.998 282.965Z" fill="#20BDB5"/>
<path d="M423.663 283.153C423.663 283.153 425.257 289.397 421.259 293.646C421.259 293.646 418.855 291.072 421.259 284.767L423.663 283.153Z" fill="#20BDB5"/>
<path d="M430.175 277.16C430.175 277.16 429.787 271.85 418.131 273.612C418.131 273.612 418.075 277.037 422.167 278.659C426.258 280.281 428.133 278.913 430.175 277.16Z" fill="#20BDB5"/>
<path d="M430.908 277.125C430.908 277.125 435.834 278.751 431.44 289.998C431.44 289.998 428.189 289.252 427.605 284.776C427.021 280.299 428.751 278.756 430.908 277.125Z" fill="#20BDB5"/>
<path d="M437.488 269.592C437.488 269.592 438.157 260.853 426.245 261.748C426.245 261.748 425.393 269.64 435.387 271.692L437.488 269.592Z" fill="#20BDB5"/>
<path d="M445.36 259.726C445.36 259.726 443.727 249.821 431.82 252.772C431.82 252.772 431.777 261.335 443.416 262.085L445.36 259.726Z" fill="#20BDB5"/>
<path d="M451.113 249.528C451.113 249.528 448.377 239.882 436.58 242.767C436.58 242.767 439.389 251.444 450.329 251.308L451.113 249.528Z" fill="#20BDB5"/>
<path d="M456.577 239.566C456.577 239.566 453.905 229.556 442.513 232.55C442.513 232.55 446.314 242.061 455.822 241.258L456.577 239.566Z" fill="#20BDB5"/>
<path d="M460.097 230.104C460.097 230.104 458.043 217.862 447.422 220.572C447.422 220.572 450.508 231.709 459.317 231.888L460.097 230.104Z" fill="#20BDB5"/>
<path d="M463.4 218.674C463.4 218.674 460.932 206.335 450.188 209.904C450.188 209.904 454.399 221.567 462.637 220.362L463.4 218.674Z" fill="#20BDB5"/>
<path d="M465.428 208.036C465.428 208.036 461.512 195.693 453.206 196.027C453.206 196.027 457.207 209.062 464.734 210.496L465.428 208.036Z" fill="#20BDB5"/>
<path d="M466.741 197.653C466.741 197.653 462.479 182.798 455.72 183.943C455.72 183.943 458.669 195.299 466.502 199.969L466.741 197.653Z" fill="#20BDB5"/>
<path d="M467.483 185.267C467.483 185.267 463.485 172.89 456.828 172.394C456.828 172.394 459.547 184.574 467.351 188.486L467.483 185.267Z" fill="#20BDB5"/>
<path d="M468.288 173.709C468.288 173.709 463.306 161.318 458.912 161.038C458.912 161.038 461.077 173.24 467.862 175.744L468.288 173.709Z" fill="#20BDB5"/>
<path d="M468.838 162.958C468.838 162.958 465.774 149.502 461.371 148.384C461.371 148.384 461.972 159.394 468.395 163.967L468.838 162.958Z" fill="#20BDB5"/>
<path d="M470.5 148.875C470.5 148.875 467.278 138.146 463.711 136.51C463.711 136.51 464.414 149.16 469.677 151.497L470.5 148.875Z" fill="#20BDB5"/>
<path d="M471.877 139.667L472.524 120.752C472.524 120.752 465.855 135.011 471.395 142.986L471.877 139.667Z" fill="#20BDB5"/>
<path d="M477.025 120.853C477.025 120.853 481.828 107.041 482.991 106.27C482.991 106.27 473.573 115.232 474.494 126.759L477.025 120.853Z" fill="#20BDB5"/>
<path d="M437.812 269.526C437.812 269.526 446.259 268.39 446.007 280.671C446.007 280.671 438.375 281.952 435.881 271.793L437.812 269.526Z" fill="#20BDB5"/>
<path d="M445.76 259.393C445.76 259.393 455.52 259.362 454.71 271.933C454.71 271.933 446.515 273.441 443.812 261.77L445.76 259.393Z" fill="#20BDB5"/>
<path d="M451.207 250.339C451.207 250.339 460.067 246.064 465.735 257.1C465.735 257.1 457.553 260.66 450.423 252.124L451.207 250.339Z" fill="#20BDB5"/>
<path d="M456.773 239.658C456.773 239.658 465.846 235.111 471.173 245.888C471.173 245.888 461.721 249.238 456.023 241.363L456.773 239.658Z" fill="#20BDB5"/>
<path d="M459.982 230.372C459.982 230.372 468.714 221.791 475.682 230.468C475.682 230.468 466.762 237.532 459.581 232.283L459.982 230.372Z" fill="#20BDB5"/>
<path d="M462.905 218.38C462.905 218.38 471.689 209.611 478.602 218.783C478.602 218.783 468.744 225.987 462.59 220.221L462.905 218.38Z" fill="#20BDB5"/>
<path d="M464.546 207.685C464.546 207.685 471.314 196.724 479.284 199.171C479.284 199.171 472.26 210.777 464.623 210.259L464.546 207.685Z" fill="#20BDB5"/>
<path d="M466.541 197.583C466.541 197.583 473.36 183.78 479.812 186.183C479.812 186.183 474.894 196.794 466.366 199.911L466.541 197.583Z" fill="#20BDB5"/>
<path d="M467.014 184.548C467.014 184.548 474.025 173.683 480.592 175.012C480.592 175.012 474.86 186.03 466.332 187.692L467.014 184.548Z" fill="#20BDB5"/>
<path d="M467.559 173.468C467.559 173.468 472.993 161.275 477.408 161.191C477.408 161.191 474.8 173.297 467.926 175.538L467.559 173.468Z" fill="#20BDB5"/>
<path d="M468.625 162.695C468.625 162.695 474.664 150.348 479.203 150.322C479.203 150.322 476.113 160.88 468.825 163.778L468.625 162.695Z" fill="#20BDB5"/>
<path d="M469.532 149.647C469.532 149.647 474.05 139.43 477.792 138.273C477.792 138.273 475.533 150.725 470.031 152.356L469.532 149.647Z" fill="#20BDB5"/>
<path d="M472.414 139.294L482.51 123.47C482.51 123.47 479.923 139.079 470.939 142.324L472.414 139.294Z" fill="#20BDB5"/>
<path d="M479.343 122.129C479.343 122.129 491.076 113.798 491.502 112.452C491.502 112.452 485.536 124.12 474.455 126.18L479.343 122.129Z" fill="#20BDB5"/>
<path d="M480.047 118.38C480.047 118.38 493.518 105.055 496.957 105.068C496.957 105.068 485.847 105.59 479.723 117.67L480.047 118.38Z" fill="#20BDB5"/>
<path d="M469.665 151.624L470.155 151.69C472.686 131.306 476.377 119.244 480.545 117.766L480.383 117.284C475.964 118.862 472.247 130.74 469.665 151.624Z" fill="#444053"/>
<path d="M465.94 200.372L466.681 200.433C466.839 198.53 466.959 196.584 467.04 194.641C467.747 177.769 468.842 162.274 470.283 150.659L469.857 150.111C468.412 161.752 467.005 177.712 466.298 194.611C466.217 196.54 466.098 198.478 465.94 200.372Z" fill="#444053"/>
<path d="M409.173 292.69C409.3 292.633 422.354 286.635 435.903 272.332C443.84 263.955 450.436 254.336 455.443 243.832C461.708 230.709 465.527 214.583 466.805 198.917L466.034 199.289C463.157 234.454 447.597 258.481 435.225 271.569C421.809 285.745 408.9 291.682 408.772 291.739L409.173 292.69Z" fill="#444053"/>
<path d="M442.973 37.3701H33.4638C32.4962 37.3701 31.5683 37.7655 30.8842 38.4694C30.2 39.1733 29.8157 40.1279 29.8157 41.1233V52.0585H446.621V41.1233C446.621 40.1279 446.237 39.1733 445.553 38.4694C444.868 37.7655 443.941 37.3701 442.973 37.3701Z" fill="#334D5C"/>
<path d="M29.8157 52.0586V298.14C29.8157 300.147 30.5907 302.072 31.9702 303.491C33.3497 304.911 35.2207 305.708 37.1716 305.708H439.265C441.216 305.708 443.087 304.911 444.467 303.491C445.846 302.072 446.621 300.147 446.621 298.14V52.0586H29.8157Z" fill="white"/>
<path opacity="0.8" d="M36.4171 46.3583C37.3586 46.3583 38.1219 45.573 38.1219 44.6044C38.1219 43.6358 37.3586 42.8506 36.4171 42.8506C35.4756 42.8506 34.7124 43.6358 34.7124 44.6044C34.7124 45.573 35.4756 46.3583 36.4171 46.3583Z" fill="#FA5959"/>
<path opacity="0.8" d="M41.1051 46.3583C42.0466 46.3583 42.8098 45.573 42.8098 44.6044C42.8098 43.6358 42.0466 42.8506 41.1051 42.8506C40.1636 42.8506 39.4004 43.6358 39.4004 44.6044C39.4004 45.573 40.1636 46.3583 41.1051 46.3583Z" fill="#FED253"/>
<path opacity="0.8" d="M45.7931 46.3583C46.7346 46.3583 47.4978 45.573 47.4978 44.6044C47.4978 43.6358 46.7346 42.8506 45.7931 42.8506C44.8516 42.8506 44.0884 43.6358 44.0884 44.6044C44.0884 45.573 44.8516 46.3583 45.7931 46.3583Z" fill="#8CCF4D"/>
<path opacity="0.05" d="M403.538 93.0894H68.5598V244.63H403.538V93.0894Z" fill="black"/>
<path d="M400.981 94.2383H71.1169V242.438H400.981V94.2383Z" fill="#334D5C"/>
<path d="M161.041 132.38C154.551 132.38 148.206 134.36 142.81 138.07C137.413 141.779 133.207 147.052 130.723 153.221C128.239 159.39 127.589 166.179 128.856 172.728C130.122 179.277 133.247 185.293 137.837 190.014C142.426 194.736 148.273 197.951 154.639 199.254C161.005 200.557 167.603 199.888 173.599 197.333C179.596 194.777 184.721 190.45 188.327 184.898C191.932 179.346 193.857 172.819 193.857 166.141C193.857 161.708 193.008 157.317 191.359 153.221C189.71 149.125 187.293 145.403 184.245 142.268C181.198 139.133 177.581 136.646 173.599 134.95C169.618 133.253 165.351 132.38 161.041 132.38ZM166.927 166.952V182.939H155.326V166.952C153.721 165.702 152.538 163.965 151.944 161.986C151.35 160.006 151.375 157.885 152.016 155.922C152.657 153.958 153.881 152.251 155.516 151.042C157.15 149.832 159.113 149.182 161.126 149.182C163.14 149.182 165.102 149.832 166.737 151.042C168.372 152.251 169.596 153.958 170.237 155.922C170.878 157.885 170.903 160.006 170.309 161.986C169.715 163.965 168.532 165.702 166.927 166.952Z" fill="#20BDB5"/>
<path opacity="0.05" d="M161.041 132.38C154.551 132.38 148.206 134.36 142.81 138.07C137.413 141.779 133.207 147.052 130.723 153.221C128.239 159.39 127.589 166.179 128.856 172.728C130.122 179.277 133.247 185.293 137.837 190.014C142.426 194.736 148.273 197.951 154.639 199.254C161.005 200.557 167.603 199.888 173.599 197.333C179.596 194.777 184.721 190.45 188.327 184.898C191.932 179.346 193.857 172.819 193.857 166.141C193.857 161.708 193.008 157.317 191.359 153.221C189.71 149.125 187.293 145.403 184.245 142.268C181.198 139.133 177.581 136.646 173.599 134.95C169.618 133.253 165.351 132.38 161.041 132.38ZM166.927 166.952V182.939H155.326V166.952C153.721 165.702 152.538 163.965 151.944 161.986C151.35 160.006 151.375 157.885 152.016 155.922C152.657 153.958 153.881 152.251 155.516 151.042C157.15 149.832 159.113 149.182 161.126 149.182C163.14 149.182 165.102 149.832 166.737 151.042C168.372 152.251 169.596 153.958 170.237 155.922C170.878 157.885 170.903 160.006 170.309 161.986C169.715 163.965 168.532 165.702 166.927 166.952Z" fill="black"/>
<path d="M161.041 122.734C152.696 122.734 144.539 125.28 137.601 130.049C130.662 134.819 125.254 141.598 122.061 149.53C118.867 157.462 118.032 166.19 119.66 174.61C121.288 183.03 125.306 190.765 131.207 196.835C137.108 202.906 144.625 207.04 152.81 208.715C160.994 210.39 169.478 209.53 177.187 206.245C184.897 202.959 191.486 197.396 196.122 190.257C200.759 183.119 203.233 174.727 203.233 166.141C203.233 154.629 198.788 143.588 190.875 135.448C182.963 127.307 172.231 122.734 161.041 122.734ZM168.606 167.185V187.736H153.689V167.185C151.625 165.577 150.103 163.343 149.339 160.798C148.575 158.252 148.607 155.524 149.431 152.999C150.255 150.473 151.83 148.278 153.932 146.722C156.034 145.167 158.558 144.33 161.148 144.33C163.737 144.33 166.261 145.167 168.363 146.722C170.466 148.278 172.04 150.473 172.864 152.999C173.688 155.524 173.721 158.252 172.957 160.798C172.193 163.343 170.671 165.577 168.606 167.185Z" fill="#20BDB5"/>
<path d="M357.085 160.446H220.707V175.353H357.085V160.446Z" fill="white"/>
<path d="M357.085 187.63H327.678V202.538H357.085V187.63Z" fill="#20BDB5"/>
<path d="M234.131 167.676H231.664L233.859 165.422C233.898 165.381 233.92 165.325 233.92 165.267C233.92 165.209 233.898 165.153 233.859 165.111C233.839 165.091 233.815 165.074 233.789 165.063C233.763 165.052 233.735 165.046 233.707 165.046C233.679 165.046 233.651 165.052 233.625 165.063C233.599 165.074 233.576 165.091 233.556 165.111L231.361 167.369V164.826C231.361 164.768 231.339 164.712 231.299 164.671C231.259 164.63 231.205 164.607 231.148 164.607C231.092 164.608 231.038 164.632 230.999 164.672C230.959 164.713 230.936 164.768 230.935 164.826V167.369L228.744 165.098C228.725 165.077 228.701 165.061 228.675 165.05C228.649 165.039 228.621 165.033 228.593 165.033C228.565 165.033 228.537 165.039 228.511 165.05C228.485 165.061 228.462 165.077 228.442 165.098C228.402 165.14 228.38 165.196 228.38 165.254C228.38 165.312 228.402 165.368 228.442 165.409L230.637 167.663H228.165C228.109 167.664 228.055 167.688 228.015 167.728C227.976 167.769 227.953 167.824 227.952 167.882C227.952 167.94 227.974 167.996 228.014 168.037C228.054 168.078 228.108 168.101 228.165 168.101H230.637L228.442 170.36C228.402 170.401 228.38 170.457 228.38 170.515C228.38 170.573 228.402 170.629 228.442 170.671C228.483 170.71 228.537 170.732 228.593 170.732C228.649 170.732 228.703 170.71 228.744 170.671L230.935 168.413V170.951C230.935 171.01 230.957 171.065 230.997 171.106C231.037 171.148 231.092 171.171 231.148 171.171C231.205 171.171 231.259 171.148 231.299 171.106C231.339 171.065 231.361 171.01 231.361 170.951V168.413L233.556 170.671C233.597 170.71 233.651 170.732 233.707 170.732C233.763 170.732 233.817 170.71 233.859 170.671C233.898 170.629 233.92 170.573 233.92 170.515C233.92 170.457 233.898 170.401 233.859 170.36L231.664 168.101H234.131C234.188 168.101 234.242 168.078 234.282 168.037C234.322 167.996 234.344 167.94 234.344 167.882C234.341 167.826 234.317 167.774 234.278 167.736C234.238 167.697 234.186 167.676 234.131 167.676Z" fill="#20BDB5"/>
<path d="M243.081 167.676H240.613L242.808 165.422C242.848 165.381 242.87 165.325 242.87 165.267C242.87 165.209 242.848 165.153 242.808 165.111C242.788 165.091 242.765 165.074 242.739 165.063C242.713 165.052 242.685 165.046 242.657 165.046C242.629 165.046 242.601 165.052 242.575 165.063C242.549 165.074 242.525 165.091 242.506 165.111L240.311 167.369V164.826C240.311 164.768 240.288 164.712 240.248 164.671C240.208 164.63 240.154 164.607 240.098 164.607C240.042 164.608 239.988 164.632 239.948 164.672C239.909 164.713 239.886 164.768 239.885 164.826V167.369L237.694 165.098C237.674 165.077 237.651 165.061 237.625 165.05C237.599 165.039 237.571 165.033 237.543 165.033C237.515 165.033 237.487 165.039 237.461 165.05C237.435 165.061 237.411 165.077 237.391 165.098C237.352 165.14 237.33 165.196 237.33 165.254C237.33 165.312 237.352 165.368 237.391 165.409L239.586 167.663H237.114C237.058 167.664 237.005 167.688 236.965 167.728C236.925 167.769 236.902 167.824 236.901 167.882C236.901 167.94 236.924 167.996 236.964 168.037C237.004 168.078 237.058 168.101 237.114 168.101H239.586L237.391 170.36C237.352 170.401 237.33 170.457 237.33 170.515C237.33 170.573 237.352 170.629 237.391 170.671C237.433 170.71 237.487 170.732 237.543 170.732C237.599 170.732 237.653 170.71 237.694 170.671L239.885 168.413V170.951C239.885 171.01 239.907 171.065 239.947 171.106C239.987 171.148 240.041 171.171 240.098 171.171C240.154 171.171 240.208 171.148 240.248 171.106C240.288 171.065 240.311 171.01 240.311 170.951V168.413L242.506 170.671C242.547 170.71 242.601 170.732 242.657 170.732C242.713 170.732 242.767 170.71 242.808 170.671C242.848 170.629 242.87 170.573 242.87 170.515C242.87 170.457 242.848 170.401 242.808 170.36L240.613 168.101H243.081C243.138 168.101 243.192 168.078 243.232 168.037C243.272 167.996 243.294 167.94 243.294 167.882C243.291 167.826 243.267 167.774 243.227 167.736C243.188 167.697 243.135 167.676 243.081 167.676Z" fill="#20BDB5"/>
<path d="M252.031 167.676H249.563L251.758 165.422C251.798 165.381 251.819 165.325 251.819 165.267C251.819 165.209 251.798 165.153 251.758 165.111C251.738 165.091 251.715 165.074 251.689 165.063C251.663 165.052 251.635 165.046 251.607 165.046C251.579 165.046 251.551 165.052 251.525 165.063C251.499 165.074 251.475 165.091 251.456 165.111L249.261 167.369V164.826C249.261 164.768 249.238 164.712 249.198 164.671C249.158 164.63 249.104 164.607 249.048 164.607C248.992 164.608 248.938 164.632 248.898 164.672C248.858 164.713 248.836 164.768 248.835 164.826V167.369L246.644 165.098C246.624 165.077 246.601 165.061 246.575 165.05C246.549 165.039 246.521 165.033 246.493 165.033C246.465 165.033 246.437 165.039 246.411 165.05C246.385 165.061 246.361 165.077 246.341 165.098C246.302 165.14 246.28 165.196 246.28 165.254C246.28 165.312 246.302 165.368 246.341 165.409L248.536 167.663H246.064C246.008 167.664 245.955 167.688 245.915 167.728C245.875 167.769 245.852 167.824 245.851 167.882C245.851 167.94 245.874 167.996 245.914 168.037C245.954 168.078 246.008 168.101 246.064 168.101H248.536L246.341 170.36C246.302 170.401 246.28 170.457 246.28 170.515C246.28 170.573 246.302 170.629 246.341 170.671C246.382 170.71 246.437 170.732 246.493 170.732C246.549 170.732 246.603 170.71 246.644 170.671L248.835 168.413V170.951C248.835 171.01 248.857 171.065 248.897 171.106C248.937 171.148 248.991 171.171 249.048 171.171C249.104 171.171 249.158 171.148 249.198 171.106C249.238 171.065 249.261 171.01 249.261 170.951V168.413L251.456 170.671C251.497 170.71 251.551 170.732 251.607 170.732C251.663 170.732 251.717 170.71 251.758 170.671C251.798 170.629 251.819 170.573 251.819 170.515C251.819 170.457 251.798 170.401 251.758 170.36L249.563 168.101H252.031C252.087 168.101 252.142 168.078 252.182 168.037C252.222 167.996 252.244 167.94 252.244 167.882C252.241 167.826 252.217 167.774 252.177 167.736C252.138 167.697 252.085 167.676 252.031 167.676Z" fill="#20BDB5"/>
<path d="M260.981 167.676H258.513L260.708 165.422C260.747 165.381 260.769 165.325 260.769 165.267C260.769 165.209 260.747 165.153 260.708 165.111C260.688 165.091 260.665 165.074 260.639 165.063C260.613 165.052 260.585 165.046 260.557 165.046C260.528 165.046 260.501 165.052 260.475 165.063C260.449 165.074 260.425 165.091 260.405 165.111L258.21 167.369V164.826C258.21 164.768 258.188 164.712 258.148 164.671C258.108 164.63 258.054 164.607 257.997 164.607C257.941 164.608 257.888 164.632 257.848 164.672C257.808 164.713 257.785 164.768 257.784 164.826V167.369L255.594 165.098C255.574 165.077 255.55 165.061 255.524 165.05C255.498 165.039 255.471 165.033 255.442 165.033C255.414 165.033 255.386 165.039 255.36 165.05C255.334 165.061 255.311 165.077 255.291 165.098C255.252 165.14 255.23 165.196 255.23 165.254C255.23 165.312 255.252 165.368 255.291 165.409L257.486 167.663H255.014C254.958 167.664 254.904 167.688 254.865 167.728C254.825 167.769 254.802 167.824 254.801 167.882C254.801 167.94 254.823 167.996 254.863 168.037C254.903 168.078 254.958 168.101 255.014 168.101H257.486L255.291 170.36C255.252 170.401 255.23 170.457 255.23 170.515C255.23 170.573 255.252 170.629 255.291 170.671C255.332 170.71 255.386 170.732 255.442 170.732C255.499 170.732 255.553 170.71 255.594 170.671L257.784 168.413V170.951C257.784 171.01 257.807 171.065 257.847 171.106C257.887 171.148 257.941 171.171 257.997 171.171C258.054 171.171 258.108 171.148 258.148 171.106C258.188 171.065 258.21 171.01 258.21 170.951V168.413L260.405 170.671C260.446 170.71 260.5 170.732 260.557 170.732C260.613 170.732 260.667 170.71 260.708 170.671C260.747 170.629 260.769 170.573 260.769 170.515C260.769 170.457 260.747 170.401 260.708 170.36L258.513 168.101H260.981C261.037 168.101 261.091 168.078 261.131 168.037C261.171 167.996 261.194 167.94 261.194 167.882C261.19 167.826 261.167 167.774 261.127 167.736C261.087 167.697 261.035 167.676 260.981 167.676Z" fill="#20BDB5"/>
<path d="M269.931 167.676H267.463L269.658 165.422C269.697 165.381 269.719 165.325 269.719 165.267C269.719 165.209 269.697 165.153 269.658 165.111C269.638 165.091 269.614 165.074 269.589 165.063C269.563 165.052 269.535 165.046 269.507 165.046C269.478 165.046 269.451 165.052 269.425 165.063C269.399 165.074 269.375 165.091 269.355 165.111L267.16 167.369V164.826C267.16 164.768 267.138 164.712 267.098 164.671C267.058 164.63 267.004 164.607 266.947 164.607C266.891 164.608 266.838 164.632 266.798 164.672C266.758 164.713 266.735 164.768 266.734 164.826V167.369L264.544 165.098C264.524 165.077 264.5 165.061 264.474 165.05C264.448 165.039 264.42 165.033 264.392 165.033C264.364 165.033 264.336 165.039 264.31 165.05C264.284 165.061 264.261 165.077 264.241 165.098C264.202 165.14 264.18 165.196 264.18 165.254C264.18 165.312 264.202 165.368 264.241 165.409L266.436 167.663H263.964C263.908 167.664 263.854 167.688 263.815 167.728C263.775 167.769 263.752 167.824 263.751 167.882C263.751 167.94 263.773 167.996 263.813 168.037C263.853 168.078 263.908 168.101 263.964 168.101H266.436L264.241 170.36C264.202 170.401 264.18 170.457 264.18 170.515C264.18 170.573 264.202 170.629 264.241 170.671C264.282 170.71 264.336 170.732 264.392 170.732C264.449 170.732 264.503 170.71 264.544 170.671L266.734 168.413V170.951C266.734 171.01 266.757 171.065 266.797 171.106C266.837 171.148 266.891 171.171 266.947 171.171C267.004 171.171 267.058 171.148 267.098 171.106C267.138 171.065 267.16 171.01 267.16 170.951V168.413L269.355 170.671C269.396 170.71 269.45 170.732 269.507 170.732C269.563 170.732 269.617 170.71 269.658 170.671C269.697 170.629 269.719 170.573 269.719 170.515C269.719 170.457 269.697 170.401 269.658 170.36L267.463 168.101H269.931C269.987 168.101 270.041 168.078 270.081 168.037C270.121 167.996 270.144 167.94 270.144 167.882C270.14 167.826 270.117 167.774 270.077 167.736C270.037 167.697 269.985 167.676 269.931 167.676Z" fill="#20BDB5"/>
<path d="M278.88 167.676H276.413L278.608 165.422C278.647 165.381 278.669 165.325 278.669 165.267C278.669 165.209 278.647 165.153 278.608 165.111C278.588 165.091 278.564 165.074 278.538 165.063C278.512 165.052 278.484 165.046 278.456 165.046C278.428 165.046 278.4 165.052 278.374 165.063C278.348 165.074 278.325 165.091 278.305 165.111L276.11 167.369V164.826C276.11 164.768 276.088 164.712 276.048 164.671C276.008 164.63 275.954 164.607 275.897 164.607C275.841 164.608 275.787 164.632 275.748 164.672C275.708 164.713 275.685 164.768 275.684 164.826V167.369L273.493 165.098C273.474 165.077 273.45 165.061 273.424 165.05C273.398 165.039 273.37 165.033 273.342 165.033C273.314 165.033 273.286 165.039 273.26 165.05C273.234 165.061 273.211 165.077 273.191 165.098C273.151 165.14 273.129 165.196 273.129 165.254C273.129 165.312 273.151 165.368 273.191 165.409L275.386 167.663H272.914C272.858 167.664 272.804 167.688 272.764 167.728C272.725 167.769 272.702 167.824 272.701 167.882C272.701 167.94 272.723 167.996 272.763 168.037C272.803 168.078 272.857 168.101 272.914 168.101H275.386L273.191 170.36C273.151 170.401 273.129 170.457 273.129 170.515C273.129 170.573 273.151 170.629 273.191 170.671C273.232 170.71 273.286 170.732 273.342 170.732C273.398 170.732 273.452 170.71 273.493 170.671L275.684 168.413V170.951C275.684 171.01 275.706 171.065 275.746 171.106C275.786 171.148 275.841 171.171 275.897 171.171C275.954 171.171 276.008 171.148 276.048 171.106C276.088 171.065 276.11 171.01 276.11 170.951V168.413L278.305 170.671C278.346 170.71 278.4 170.732 278.456 170.732C278.512 170.732 278.567 170.71 278.608 170.671C278.647 170.629 278.669 170.573 278.669 170.515C278.669 170.457 278.647 170.401 278.608 170.36L276.413 168.101H278.88C278.937 168.101 278.991 168.078 279.031 168.037C279.071 167.996 279.093 167.94 279.093 167.882C279.09 167.826 279.066 167.774 279.027 167.736C278.987 167.697 278.935 167.676 278.88 167.676Z" fill="#20BDB5"/>
<path d="M287.83 167.676H285.363L287.558 165.422C287.597 165.381 287.619 165.325 287.619 165.267C287.619 165.209 287.597 165.153 287.558 165.111C287.538 165.091 287.514 165.074 287.488 165.063C287.462 165.052 287.434 165.046 287.406 165.046C287.378 165.046 287.35 165.052 287.324 165.063C287.298 165.074 287.275 165.091 287.255 165.111L285.06 167.369V164.826C285.06 164.768 285.038 164.712 284.998 164.671C284.958 164.63 284.904 164.607 284.847 164.607C284.791 164.608 284.737 164.632 284.698 164.672C284.658 164.713 284.635 164.768 284.634 164.826V167.369L282.443 165.098C282.424 165.077 282.4 165.061 282.374 165.05C282.348 165.039 282.32 165.033 282.292 165.033C282.264 165.033 282.236 165.039 282.21 165.05C282.184 165.061 282.161 165.077 282.141 165.098C282.101 165.14 282.079 165.196 282.079 165.254C282.079 165.312 282.101 165.368 282.141 165.409L284.336 167.663H281.864C281.808 167.664 281.754 167.688 281.714 167.728C281.675 167.769 281.652 167.824 281.651 167.882C281.651 167.94 281.673 167.996 281.713 168.037C281.753 168.078 281.807 168.101 281.864 168.101H284.336L282.141 170.36C282.101 170.401 282.079 170.457 282.079 170.515C282.079 170.573 282.101 170.629 282.141 170.671C282.182 170.71 282.236 170.732 282.292 170.732C282.348 170.732 282.402 170.71 282.443 170.671L284.634 168.413V170.951C284.634 171.01 284.656 171.065 284.696 171.106C284.736 171.148 284.79 171.171 284.847 171.171C284.904 171.171 284.958 171.148 284.998 171.106C285.038 171.065 285.06 171.01 285.06 170.951V168.413L287.255 170.671C287.296 170.71 287.35 170.732 287.406 170.732C287.462 170.732 287.516 170.71 287.558 170.671C287.597 170.629 287.619 170.573 287.619 170.515C287.619 170.457 287.597 170.401 287.558 170.36L285.363 168.101H287.83C287.887 168.101 287.941 168.078 287.981 168.037C288.021 167.996 288.043 167.94 288.043 167.882C288.04 167.826 288.016 167.774 287.977 167.736C287.937 167.697 287.885 167.676 287.83 167.676Z" fill="#20BDB5"/>
<path d="M296.78 167.676H294.312L296.507 165.422C296.547 165.381 296.569 165.325 296.569 165.267C296.569 165.209 296.547 165.153 296.507 165.111C296.487 165.091 296.464 165.074 296.438 165.063C296.412 165.052 296.384 165.046 296.356 165.046C296.328 165.046 296.3 165.052 296.274 165.063C296.248 165.074 296.224 165.091 296.205 165.111L294.01 167.369V164.826C294.01 164.768 293.987 164.712 293.947 164.671C293.907 164.63 293.853 164.607 293.797 164.607C293.741 164.608 293.687 164.632 293.647 164.672C293.607 164.713 293.585 164.768 293.584 164.826V167.369L291.393 165.098C291.373 165.077 291.35 165.061 291.324 165.05C291.298 165.039 291.27 165.033 291.242 165.033C291.214 165.033 291.186 165.039 291.16 165.05C291.134 165.061 291.11 165.077 291.09 165.098C291.051 165.14 291.029 165.196 291.029 165.254C291.029 165.312 291.051 165.368 291.09 165.409L293.285 167.663H290.813C290.757 167.664 290.704 167.688 290.664 167.728C290.624 167.769 290.601 167.824 290.6 167.882C290.6 167.94 290.623 167.996 290.663 168.037C290.703 168.078 290.757 168.101 290.813 168.101H293.285L291.09 170.36C291.051 170.401 291.029 170.457 291.029 170.515C291.029 170.573 291.051 170.629 291.09 170.671C291.131 170.71 291.186 170.732 291.242 170.732C291.298 170.732 291.352 170.71 291.393 170.671L293.584 168.413V170.951C293.584 171.01 293.606 171.065 293.646 171.106C293.686 171.148 293.74 171.171 293.797 171.171C293.853 171.171 293.907 171.148 293.947 171.106C293.987 171.065 294.01 171.01 294.01 170.951V168.413L296.205 170.671C296.246 170.71 296.3 170.732 296.356 170.732C296.412 170.732 296.466 170.71 296.507 170.671C296.547 170.629 296.569 170.573 296.569 170.515C296.569 170.457 296.547 170.401 296.507 170.36L294.312 168.101H296.78C296.836 168.101 296.891 168.078 296.931 168.037C296.971 167.996 296.993 167.94 296.993 167.882C296.99 167.826 296.966 167.774 296.926 167.736C296.887 167.697 296.834 167.676 296.78 167.676Z" fill="#20BDB5"/>
<path d="M305.73 167.676H303.262L305.457 165.422C305.496 165.381 305.518 165.325 305.518 165.267C305.518 165.209 305.496 165.153 305.457 165.111C305.437 165.091 305.414 165.074 305.388 165.063C305.362 165.052 305.334 165.046 305.306 165.046C305.278 165.046 305.25 165.052 305.224 165.063C305.198 165.074 305.174 165.091 305.155 165.111L302.96 167.369V164.826C302.96 164.768 302.937 164.712 302.897 164.671C302.857 164.63 302.803 164.607 302.747 164.607C302.69 164.608 302.637 164.632 302.597 164.672C302.557 164.713 302.535 164.768 302.534 164.826V167.369L300.343 165.098C300.323 165.077 300.3 165.061 300.274 165.05C300.248 165.039 300.22 165.033 300.192 165.033C300.164 165.033 300.136 165.039 300.11 165.05C300.084 165.061 300.06 165.077 300.04 165.098C300.001 165.14 299.979 165.196 299.979 165.254C299.979 165.312 300.001 165.368 300.04 165.409L302.235 167.663H299.763C299.707 167.664 299.654 167.688 299.614 167.728C299.574 167.769 299.551 167.824 299.55 167.882C299.55 167.94 299.573 167.996 299.613 168.037C299.653 168.078 299.707 168.101 299.763 168.101H302.235L300.04 170.36C300.001 170.401 299.979 170.457 299.979 170.515C299.979 170.573 300.001 170.629 300.04 170.671C300.081 170.71 300.135 170.732 300.192 170.732C300.248 170.732 300.302 170.71 300.343 170.671L302.534 168.413V170.951C302.534 171.01 302.556 171.065 302.596 171.106C302.636 171.148 302.69 171.171 302.747 171.171C302.803 171.171 302.857 171.148 302.897 171.106C302.937 171.065 302.96 171.01 302.96 170.951V168.413L305.155 170.671C305.196 170.71 305.25 170.732 305.306 170.732C305.362 170.732 305.416 170.71 305.457 170.671C305.496 170.629 305.518 170.573 305.518 170.515C305.518 170.457 305.496 170.401 305.457 170.36L303.262 168.101H305.73C305.786 168.101 305.841 168.078 305.881 168.037C305.921 167.996 305.943 167.94 305.943 167.882C305.94 167.826 305.916 167.774 305.876 167.736C305.837 167.697 305.784 167.676 305.73 167.676Z" fill="#20BDB5"/>
<path d="M314.68 167.676H312.212L314.407 165.422C314.446 165.381 314.468 165.325 314.468 165.267C314.468 165.209 314.446 165.153 314.407 165.111C314.387 165.091 314.363 165.074 314.338 165.063C314.312 165.052 314.284 165.046 314.256 165.046C314.227 165.046 314.2 165.052 314.174 165.063C314.148 165.074 314.124 165.091 314.104 165.111L311.909 167.369V164.826C311.909 164.768 311.887 164.712 311.847 164.671C311.807 164.63 311.753 164.607 311.696 164.607C311.64 164.608 311.587 164.632 311.547 164.672C311.507 164.713 311.484 164.768 311.483 164.826V167.369L309.293 165.098C309.273 165.077 309.249 165.061 309.223 165.05C309.197 165.039 309.17 165.033 309.141 165.033C309.113 165.033 309.085 165.039 309.059 165.05C309.033 165.061 309.01 165.077 308.99 165.098C308.951 165.14 308.929 165.196 308.929 165.254C308.929 165.312 308.951 165.368 308.99 165.409L311.185 167.663H308.713C308.657 167.664 308.603 167.688 308.564 167.728C308.524 167.769 308.501 167.824 308.5 167.882C308.5 167.94 308.522 167.996 308.562 168.037C308.602 168.078 308.657 168.101 308.713 168.101H311.185L308.99 170.36C308.951 170.401 308.929 170.457 308.929 170.515C308.929 170.573 308.951 170.629 308.99 170.671C309.031 170.71 309.085 170.732 309.141 170.732C309.198 170.732 309.252 170.71 309.293 170.671L311.483 168.413V170.951C311.483 171.01 311.506 171.065 311.546 171.106C311.586 171.148 311.64 171.171 311.696 171.171C311.753 171.171 311.807 171.148 311.847 171.106C311.887 171.065 311.909 171.01 311.909 170.951V168.413L314.104 170.671C314.145 170.71 314.199 170.732 314.256 170.732C314.312 170.732 314.366 170.71 314.407 170.671C314.446 170.629 314.468 170.573 314.468 170.515C314.468 170.457 314.446 170.401 314.407 170.36L312.212 168.101H314.68C314.736 168.101 314.79 168.078 314.83 168.037C314.87 167.996 314.893 167.94 314.893 167.882C314.889 167.826 314.866 167.774 314.826 167.736C314.786 167.697 314.734 167.676 314.68 167.676Z" fill="#20BDB5"/>
<path d="M323.629 167.676H321.162L323.357 165.422C323.396 165.381 323.418 165.325 323.418 165.267C323.418 165.209 323.396 165.153 323.357 165.111C323.337 165.091 323.313 165.074 323.287 165.063C323.261 165.052 323.233 165.046 323.205 165.046C323.177 165.046 323.149 165.052 323.123 165.063C323.097 165.074 323.074 165.091 323.054 165.111L320.859 167.369V164.826C320.859 164.768 320.837 164.712 320.797 164.671C320.757 164.63 320.703 164.607 320.646 164.607C320.59 164.608 320.536 164.632 320.497 164.672C320.457 164.713 320.434 164.768 320.433 164.826V167.369L318.242 165.098C318.223 165.077 318.199 165.061 318.173 165.05C318.147 165.039 318.119 165.033 318.091 165.033C318.063 165.033 318.035 165.039 318.009 165.05C317.983 165.061 317.96 165.077 317.94 165.098C317.9 165.14 317.878 165.196 317.878 165.254C317.878 165.312 317.9 165.368 317.94 165.409L320.135 167.663H317.663C317.607 167.664 317.553 167.688 317.513 167.728C317.474 167.769 317.451 167.824 317.45 167.882C317.45 167.94 317.472 167.996 317.512 168.037C317.552 168.078 317.606 168.101 317.663 168.101H320.135L317.94 170.36C317.9 170.401 317.878 170.457 317.878 170.515C317.878 170.573 317.9 170.629 317.94 170.671C317.981 170.71 318.035 170.732 318.091 170.732C318.147 170.732 318.201 170.71 318.242 170.671L320.433 168.413V170.951C320.433 171.01 320.455 171.065 320.495 171.106C320.535 171.148 320.59 171.171 320.646 171.171C320.703 171.171 320.757 171.148 320.797 171.106C320.837 171.065 320.859 171.01 320.859 170.951V168.413L323.054 170.671C323.095 170.71 323.149 170.732 323.205 170.732C323.261 170.732 323.316 170.71 323.357 170.671C323.396 170.629 323.418 170.573 323.418 170.515C323.418 170.457 323.396 170.401 323.357 170.36L321.162 168.101H323.629C323.686 168.101 323.74 168.078 323.78 168.037C323.82 167.996 323.842 167.94 323.842 167.882C323.839 167.826 323.815 167.774 323.776 167.736C323.736 167.697 323.684 167.676 323.629 167.676Z" fill="#20BDB5"/>
<path d="M392.24 221.015C392.228 220.485 392.164 219.957 392.048 219.441C391.665 217.959 390.8 216.165 389.376 215.718C387.907 215.255 386.487 214.638 385.14 213.877C384.884 209.176 385.933 204.366 384.791 199.811C384.364 198.145 383.661 196.549 383.474 194.843C383.239 192.721 383.802 190.458 382.979 188.503C382.332 186.96 380.908 185.872 379.378 185.302C377.848 184.732 376.199 184.579 374.575 184.425C372.529 184.254 365.907 183.447 363.597 185.328C363.437 185.456 363.294 185.603 363.17 185.767C363.119 185.839 363.074 185.915 363.034 185.995L363.013 186.03C362.966 186.121 362.928 186.217 362.898 186.315C362.865 186.423 362.841 186.533 362.825 186.644C362.825 186.679 362.825 186.714 362.825 186.749C362.825 186.784 362.825 186.903 362.825 186.981V187.1C362.825 187.179 362.825 187.258 362.825 187.341C362.825 187.424 362.825 187.402 362.825 187.433C362.855 187.828 362.91 188.222 362.91 188.613C362.915 188.807 362.898 189.001 362.859 189.191C362.717 189.708 362.477 190.191 362.152 190.612L362.075 190.726C362.028 190.796 361.981 190.862 361.939 190.932C361.896 191.002 361.862 191.055 361.828 191.116C361.794 191.178 361.76 191.217 361.73 191.274C361.689 191.346 361.652 191.421 361.619 191.498C361.619 191.541 361.572 191.581 361.555 191.625C361.502 191.743 361.459 191.867 361.427 191.993C361.328 192.374 361.319 192.774 361.402 193.159C361.517 193.651 361.714 194.119 361.986 194.541C362.092 194.72 362.207 194.896 362.327 195.071L362.625 195.488C362.569 195.894 362.539 196.304 362.535 196.715C362.536 198.088 362.839 199.443 363.422 200.678C364.005 201.913 364.853 202.996 365.902 203.845C366.071 205.696 366.053 207.561 365.847 209.409C365.809 209.795 365.762 210.185 365.71 210.571C365.659 210.956 365.621 211.211 365.57 211.531C364.946 211.623 364.311 211.573 363.707 211.386C363.429 211.258 363.145 211.146 362.855 211.049C361.615 210.728 360.349 212 359.122 211.614C359.122 211.676 359.088 211.733 359.066 211.79C358.81 211.626 358.516 211.536 358.214 211.531C357.485 211.496 356.893 210.952 356.364 210.439L354.741 208.865C354.635 208.769 354.54 208.66 354.459 208.541C354.372 208.37 354.306 208.189 354.263 208.001C353.99 207.094 353.33 206.37 352.691 205.682C352.569 205.525 352.409 205.405 352.226 205.335C352.155 205.324 352.084 205.324 352.013 205.335C351.97 205.274 351.923 205.216 351.872 205.16C351.762 205.03 351.644 204.907 351.519 204.792C350.743 204.055 350.666 203.424 349.993 202.599C349.406 201.813 348.873 200.985 348.399 200.122C348.344 199.662 348.267 199.188 348.173 198.71C347.958 197.616 347.646 196.545 347.24 195.51L346.387 193.567L346.289 193.668C345.671 192.721 345.011 192.204 344.418 192.326C343.425 192.537 342.935 194.519 343.093 197.11L343.434 199.741C343.434 199.806 343.464 199.872 343.481 199.938C343.42 200.25 343.388 200.567 343.387 200.885C343.387 201.253 343.72 201.525 343.894 201.854C344.174 202.299 344.322 202.819 344.32 203.349C344.299 203.538 344.244 203.718 344.235 203.902C344.258 204.314 344.398 204.71 344.636 205.042L346.767 208.725L347.193 209.496L347.218 209.531C347.353 209.801 347.549 210.032 347.79 210.207C347.873 211.129 348.111 212.029 348.493 212.868C348.565 213.035 348.646 213.193 348.731 213.35C349.304 214.319 349.979 215.221 350.743 216.038L351.757 217.209C352.759 218.358 353.76 219.511 354.847 220.572C355.236 220.998 355.706 221.336 356.228 221.567C356.484 221.672 356.762 221.706 357.034 221.665C357.306 221.625 357.563 221.511 357.779 221.335C357.779 221.879 357.779 222.422 357.779 222.966C357.937 222.976 358.09 223.029 358.222 223.12C358.353 223.211 358.459 223.337 358.527 223.484C358.596 223.631 358.625 223.794 358.612 223.957C358.599 224.119 358.544 224.275 358.453 224.408C357.558 226.772 356.654 229.157 355.299 231.275C356.256 231.857 357.142 232.553 357.941 233.349C358.46 233.94 358.921 234.581 359.318 235.265C359.356 235.589 359.386 235.909 359.403 236.229C359.718 241.456 357.754 246.643 355.994 251.624C355.486 253.036 354.932 254.513 354.975 255.982C354.641 256.194 354.322 256.43 354.02 256.688C354.37 257.626 354.233 258.464 354.195 259.468C354.182 260.07 354.062 260.664 353.841 261.222C353.656 261.608 353.451 261.984 353.228 262.348C352.124 264.352 351.881 266.733 351.659 269.022C351.527 270.403 352.047 272.091 351.438 273.327C350.385 275.45 349.452 277.712 349.307 280.071C349.302 280.602 349.236 281.13 349.111 281.645C348.979 282.084 348.744 282.456 348.625 282.886C348.502 283.462 348.473 284.054 348.54 284.64C348.621 286.741 348.317 288.84 347.645 290.826C347.112 292.392 346.524 294.067 346.941 295.676C345.913 296.787 345.278 298.222 345.139 299.749C345.128 300.14 345.082 300.529 345.002 300.911C344.872 301.302 344.701 301.677 344.491 302.029C343.633 303.637 343.231 305.46 343.332 307.291C342.053 309.075 341.414 311.276 341.035 313.464C340.655 315.652 340.489 317.879 340.003 320.041C339.355 322.9 338.183 325.789 337.953 328.718C336.572 329.626 335.976 331.384 335.712 333.046C335.447 334.708 335.405 336.453 334.727 337.987C334.378 338.785 333.875 339.5 333.542 340.315C333.309 340.965 333.138 341.636 333.031 342.319C332.826 343.389 332.647 344.582 332.899 345.608C332.537 346.002 332.115 346.332 331.65 346.585C331.718 346.314 331.774 346.042 331.821 345.765C330.721 346.791 328.726 346.432 327.849 347.664C327.585 348.061 327.482 348.548 327.562 349.022C327.641 349.496 327.897 349.919 328.275 350.203C328.549 350.375 328.846 350.506 329.157 350.593C331.288 351.294 333.478 352 335.669 351.628C335.928 351.599 336.179 351.517 336.406 351.387C336.691 351.171 336.926 350.892 337.092 350.571C337.421 350.036 337.749 349.501 338.073 348.966C338.858 349.207 339.656 349.399 340.464 349.541C340.545 350.242 340.604 350.944 340.634 351.645C341.06 351.733 341.631 351.759 341.832 351.351C341.892 351.197 341.917 351.031 341.904 350.865C341.904 350.553 341.947 350.141 341.972 349.72H342.057C343.358 349.774 344.651 349.505 345.829 348.936C345.373 345.051 346.878 341.254 348.182 337.579C349.558 333.712 350.739 329.775 351.928 325.837C352.78 323.066 353.722 320.383 354.557 317.608C355.609 314.1 356.664 310.592 357.724 307.085C358.184 305.541 358.649 304.015 359.177 302.481C360.29 299.375 361.61 296.353 363.128 293.435C363.554 292.607 363.98 291.787 364.33 290.927C364.756 289.879 365.058 288.783 365.399 287.7C366.142 285.478 367.037 283.312 368.076 281.22C368.106 281.163 368.127 281.11 368.157 281.058C368.502 282.509 368.847 283.982 369.077 285.442C369.389 287.232 369.413 289.063 369.15 290.861C368.945 292.085 368.557 293.295 368.604 294.536C368.668 296.25 369.559 297.807 369.998 299.46C370.281 300.697 370.441 301.96 370.475 303.23C370.595 305.204 371.634 307.418 370.901 309.246C368.621 315.038 369.725 321.58 368.425 327.661C367.756 330.783 365.706 333.717 365.868 336.909C365.982 339.174 366.175 341.434 366.448 343.687C366.513 344.398 366.693 345.093 366.981 345.744C367.151 346.086 367.346 346.414 367.564 346.726C367.377 346.8 367.219 346.998 367.083 347.414C366.733 348.51 367.083 349.869 368.029 350.483C368.414 350.695 368.83 350.843 369.261 350.922C369.84 351.091 370.44 351.177 371.042 351.176C371.229 351.166 371.416 351.142 371.6 351.106C372.259 351.391 372.932 351.64 373.616 351.851C373.616 352.031 373.65 352.211 373.672 352.391C373.673 352.485 373.693 352.577 373.731 352.663C373.769 352.748 373.825 352.824 373.893 352.886C374 352.937 374.117 352.958 374.234 352.947H376.548C376.548 352.75 376.548 352.548 376.548 352.351C376.813 352.38 377.081 352.351 377.334 352.266C377.587 352.181 377.82 352.043 378.019 351.86C378.224 351.592 378.369 351.28 378.445 350.948C379.076 348.747 379.702 346.544 380.324 344.34C381.07 341.904 381.381 339.349 381.241 336.799C380.418 328.718 382.225 320.611 381.637 312.508C381.283 307.638 381.526 302.741 382.361 297.934C382.553 296.846 382.788 295.742 382.873 294.659C383.06 292.615 382.83 290.55 382.971 288.52C383.018 287.81 383.111 287.104 383.197 286.398C383.781 282.017 384.087 277.601 384.113 273.178C384.1 271.713 384.012 270.25 383.849 268.794C384.293 268.677 384.696 268.434 385.012 268.092C385.392 267.584 385.294 266.869 385.289 266.22C385.289 264.668 385.924 263.203 386.436 261.739C387.092 259.719 387.63 257.66 388.047 255.574C388.487 253.893 388.727 252.163 388.763 250.422C388.763 250.247 388.754 250.072 388.737 249.896C388.898 249.782 389.032 249.632 389.129 249.458C389.24 249.201 389.31 248.927 389.334 248.647C389.487 247.528 389.645 246.406 389.798 245.284C389.912 244.48 390.024 243.677 390.135 242.876L391.49 233.147C391.605 232.301 391.725 231.459 391.84 230.617L392.193 228.1C392.232 227.802 392.274 227.504 392.304 227.223C393.344 225.434 392.351 223.049 392.24 221.015ZM380.934 257.442C380.431 256.214 379.962 254.956 380.081 253.632H380.034C380.147 253.224 380.127 252.79 379.979 252.395C379.847 252.075 379.617 251.803 379.476 251.483C379.325 251.093 379.247 250.676 379.246 250.256C379.14 247.589 379.345 244.919 379.855 242.302C379.911 241.995 379.97 241.684 380.026 241.377C380.205 241.271 380.368 241.139 380.512 240.987C380.736 240.724 380.921 240.428 381.062 240.11C381.543 239.114 381.982 238.102 382.387 237.071C382.519 236.738 382.711 236.352 383.039 236.269C382.971 238.834 383.227 241.451 382.212 243.766C382.02 244.14 381.876 244.538 381.786 244.95C381.692 245.604 381.956 246.266 381.863 246.915C381.816 247.252 381.675 247.564 381.62 247.897C381.578 248.06 381.578 248.233 381.622 248.396C381.665 248.559 381.75 248.708 381.867 248.826C381.923 248.867 381.985 248.899 382.05 248.923C382.025 249.098 382.003 249.278 381.986 249.449C381.952 249.808 381.935 250.146 381.914 250.357C381.816 251.429 381.777 252.507 381.799 253.584C381.799 254.746 381.841 255.907 381.824 257.091C381.84 257.431 381.785 257.771 381.662 258.087C381.578 258.25 381.469 258.398 381.339 258.525C381.215 258.13 381.079 257.784 380.934 257.442Z" fill="url(#paint0_linear_1493_1159)"/>
<path d="M347.292 206.567C348.593 206.293 349.035 203 348.281 199.211C347.526 195.423 345.86 192.574 344.56 192.848C343.259 193.122 342.817 196.415 343.571 200.204C344.326 203.992 345.992 206.841 347.292 206.567Z" fill="#FBBEBE"/>
<path d="M367.151 347.497C366.802 348.585 367.151 349.944 368.097 350.536C368.48 350.746 368.893 350.894 369.32 350.974C369.898 351.142 370.497 351.227 371.097 351.224C371.835 351.189 372.542 350.891 373.28 350.786C373.365 350.764 373.455 350.776 373.531 350.821C373.568 350.862 373.595 350.91 373.612 350.963C373.628 351.017 373.632 351.073 373.625 351.128C373.633 351.559 373.664 351.989 373.718 352.417C373.719 352.511 373.739 352.604 373.777 352.689C373.816 352.775 373.871 352.851 373.94 352.912C374.046 352.963 374.164 352.985 374.281 352.974H376.591C376.643 350.886 376.421 348.8 375.93 346.774C375.898 346.619 375.841 346.47 375.76 346.335C375.564 346.115 375.306 345.962 375.023 345.897C374.458 345.655 373.848 345.546 373.237 345.577C372.491 345.678 371.869 346.173 371.234 346.585C370.599 346.998 369.734 347.361 368.962 347.151C368.191 346.941 367.547 346.278 367.151 347.497Z" fill="#334D5C"/>
<path d="M333.236 345.573C332.586 346.288 331.79 346.845 330.904 347.204L330.512 347.397C330.458 347.418 330.412 347.456 330.38 347.506C330.373 347.54 330.373 347.576 330.38 347.61C330.387 347.644 330.402 347.676 330.423 347.703C330.749 348.223 331.231 348.618 331.796 348.829C332.36 349.041 332.977 349.056 333.551 348.874C333.805 348.809 334.04 348.683 334.237 348.506C334.562 348.109 334.748 347.612 334.766 347.094C334.895 346.56 334.872 345.998 334.702 345.476C334.109 344.104 333.892 344.726 333.236 345.573Z" fill="#FBBEBE"/>
<path d="M342.092 350.974C342.105 351.14 342.08 351.307 342.019 351.461C341.819 351.864 341.261 351.842 340.826 351.755C340.76 350.267 340.585 348.786 340.302 347.326C339.475 347.287 338.878 348.093 338.435 348.817L337.293 350.68C337.128 351.001 336.895 351.28 336.611 351.496C336.383 351.624 336.132 351.706 335.874 351.737C333.692 352.11 331.488 351.404 329.383 350.702C329.073 350.617 328.776 350.487 328.501 350.316C328.125 350.033 327.871 349.61 327.791 349.138C327.712 348.665 327.813 348.179 328.075 347.782C328.957 346.554 330.938 346.905 332.038 345.888C331.923 346.604 331.735 347.305 331.475 347.979C332.946 347.751 333.935 346.366 335.119 345.441C335.417 345.181 335.775 345.006 336.159 344.932C336.446 344.907 336.736 344.939 337.012 345.024C338.378 345.378 339.656 346.025 340.762 346.923C341.209 347.287 341.908 347.8 342.104 348.361C342.313 349.032 342.092 350.259 342.092 350.974Z" fill="#334D5C"/>
<path d="M371.409 206.309C376.271 206.309 380.214 202.253 380.214 197.25C380.214 192.247 376.271 188.191 371.409 188.191C366.546 188.191 362.604 192.247 362.604 197.25C362.604 202.253 366.546 206.309 371.409 206.309Z" fill="#FBBEBE"/>
<path d="M388.754 250.734C388.719 252.466 388.48 254.187 388.042 255.859C387.626 257.937 387.088 259.987 386.431 261.998C385.924 263.458 385.289 264.922 385.294 266.47C385.294 267.115 385.396 267.829 385.012 268.338C384.671 268.695 384.24 268.948 383.768 269.07C383.532 269.134 383.315 269.255 383.132 269.422C382.95 269.589 382.809 269.797 382.719 270.03C382.319 269.415 382.02 268.737 381.833 268.022C381.069 265.614 380.358 263.192 379.702 260.757C379.642 260.617 379.616 260.464 379.627 260.311C379.637 260.158 379.683 260.01 379.762 259.88C379.87 259.783 379.996 259.71 380.133 259.665C380.569 259.482 380.97 259.217 381.313 258.885C381.474 258.738 381.607 258.561 381.705 258.363C381.829 258.049 381.886 257.711 381.871 257.372C381.871 256.21 381.871 255.053 381.842 253.891C381.824 252.818 381.864 251.745 381.961 250.677C381.961 250.466 381.999 250.129 382.033 249.769C382.097 249.081 382.225 248.283 382.587 248.015C383.129 247.643 384.748 248.142 385.362 248.23C386.419 248.379 387.493 248.555 388.524 248.761C388.674 249.407 388.751 250.069 388.754 250.734Z" fill="#334D5C"/>
<path d="M353.202 207.392C352.861 208.093 352.043 208.431 351.412 208.874L349.251 210.399C349.107 210.533 348.938 210.636 348.754 210.7C348.57 210.765 348.375 210.791 348.182 210.777C348.006 210.71 347.845 210.607 347.708 210.476C347.571 210.344 347.461 210.185 347.385 210.009C347.386 209.998 347.386 209.986 347.385 209.974L346.937 209.202L344.806 205.528C344.569 205.199 344.432 204.806 344.41 204.397C344.41 204.208 344.474 204.033 344.491 203.844C344.497 203.315 344.348 202.796 344.065 202.354C343.894 202.025 343.553 201.753 343.562 201.385C343.546 200.901 343.627 200.419 343.801 199.969C344.024 199.552 344.345 199.2 344.734 198.943C344.934 198.793 345.139 198.653 345.352 198.504C345.465 198.425 345.59 198.365 345.723 198.329C346.076 198.254 346.426 198.557 346.784 198.57C348.322 199.631 348.915 201.639 350.125 203.086C350.807 203.91 350.875 204.542 351.647 205.278C351.77 205.392 351.889 205.515 352.005 205.642C352.157 205.813 352.286 206.005 352.388 206.212C352.529 206.589 353.377 207.032 353.202 207.392Z" fill="#334D5C"/>
<path d="M368.315 206.313C368.95 207.694 369.444 209.211 369.261 210.728C369.223 211.139 369.096 211.536 368.89 211.89C368.276 212.859 366.989 213.034 365.868 213.091C365.632 213.071 365.394 213.099 365.169 213.175C364.944 213.25 364.735 213.371 364.556 213.53C364.406 213.754 364.333 214.023 364.347 214.294C364.362 214.565 364.464 214.824 364.637 215.029C364.997 215.425 365.444 215.726 365.941 215.906C367.714 216.709 369.627 217.371 371.554 217.187C372.449 217.099 373.318 216.832 374.209 216.696C375.18 216.587 376.156 216.532 377.132 216.529C378.291 216.485 379.446 216.367 380.601 216.248L383.661 215.937C383.829 215.94 383.991 215.879 384.117 215.766C384.343 215.494 384.053 215.095 383.772 214.889C382.148 213.653 380.081 212.802 379.157 210.943C378.73 210.066 378.598 209.023 378.283 208.075C377.968 207.128 377.465 206.273 377.269 205.309C377.164 204.463 377.117 203.61 377.128 202.757C377.139 201.897 376.834 201.064 376.276 200.424C375.666 199.841 374.784 199.692 373.957 199.657C371.92 199.565 369.751 200.065 368.306 201.542C367.918 201.941 367.586 202.419 367.185 202.779C366.785 203.138 366.239 203.244 366.503 203.717C366.768 204.191 367.287 204.485 367.569 204.901C367.853 205.351 368.103 205.823 368.315 206.313Z" fill="#FBBEBE"/>
<path d="M385.673 219.068C385.136 222.444 384.262 225.754 383.065 228.946C382.463 230.388 381.951 231.867 381.53 233.375C381.202 234.734 381.266 236.19 380.964 237.553C380.589 239.25 380.214 240.951 379.911 242.661C379.403 245.272 379.2 247.937 379.306 250.597C379.307 251.016 379.385 251.431 379.536 251.821C379.677 252.136 379.902 252.408 380.035 252.733C380.133 253.018 380.174 253.321 380.153 253.622C380.133 253.924 380.052 254.218 379.915 254.486C379.697 254.988 379.4 255.45 379.037 255.854C375.065 257.073 370.816 256.674 366.678 256.933C362.864 257.17 359.007 257.977 355.248 257.306C354.822 255.552 355.533 253.715 356.143 252.005C357.911 247.037 359.868 241.863 359.552 236.659C359.519 236.052 359.452 235.447 359.352 234.848C358.734 231.16 359.407 227.341 360.486 223.768C361.155 221.541 361.125 219.169 360.971 216.849C360.896 216.096 360.886 215.337 360.942 214.582C361.003 213.811 361.282 213.075 361.743 212.464C361.743 212.434 361.781 212.403 361.803 212.372C361.824 212.342 361.99 212.346 362.122 212.372C362.156 212.387 362.192 212.395 362.229 212.395C362.265 212.395 362.302 212.387 362.335 212.372L362.382 212.342C362.4 212.328 362.422 212.321 362.444 212.321C362.466 212.321 362.488 212.328 362.506 212.342C362.604 212.403 362.659 212.614 362.872 212.653C363.187 212.702 363.504 212.733 363.823 212.745C364.205 212.757 364.586 212.813 364.956 212.912H365.007C365.562 213.008 366.131 212.958 366.661 212.767C367.014 212.676 367.355 212.541 367.675 212.364C367.769 212.258 368.357 212.162 368.477 212.087C368.864 211.846 368.779 210.715 368.86 210.25C368.905 209.784 369.012 209.327 369.18 208.891C369.374 208.569 369.642 208.302 369.96 208.111C370.278 207.921 370.636 207.814 371.004 207.799C371.738 207.781 372.471 207.849 373.19 208.001C374.78 208.233 376.408 208.194 377.968 208.571C378.752 208.759 379.608 209.044 380.329 208.676C380.525 208.724 380.554 208.9 380.554 209.115C380.536 209.319 380.496 209.52 380.435 209.715C380.162 210.925 381.087 212.039 381.94 212.916C382.3 213.329 382.725 213.678 383.197 213.946C383.623 214.148 384.049 214.231 384.475 214.451C384.821 214.64 385.114 214.916 385.328 215.253C385.573 215.639 385.739 216.074 385.814 216.529C385.905 217.377 385.858 218.235 385.673 219.068Z" fill="#334D5C"/>
<path opacity="0.1" d="M385.673 219.068C385.135 222.444 384.261 225.754 383.065 228.946C382.463 230.388 381.951 231.867 381.53 233.375C381.202 234.734 381.266 236.19 380.964 237.553C380.588 239.25 380.213 240.951 379.911 242.661C379.821 242.714 379.728 242.762 379.634 242.806C379.104 243.067 378.542 243.252 377.963 243.358C376.924 243.488 375.872 243.452 374.844 243.253L368.762 242.416C366.333 242.078 363.746 241.67 361.943 239.978C360.942 239.048 360.285 237.821 359.565 236.637C359.532 236.03 359.465 235.425 359.365 234.826C358.747 231.139 359.42 227.32 360.498 223.746C361.167 221.519 361.138 219.147 360.984 216.827C360.908 216.074 360.898 215.315 360.954 214.56C361.016 213.789 361.294 213.054 361.756 212.443C361.88 212.405 362.007 212.376 362.135 212.355C362.221 212.337 362.307 212.325 362.395 212.32H362.518C362.662 212.32 362.805 212.338 362.945 212.372C363.235 212.468 363.52 212.58 363.797 212.71H363.848C364.213 212.834 364.597 212.89 364.982 212.877C365.544 212.877 366.124 212.785 366.686 212.745C367.381 212.633 368.093 212.765 368.707 213.118C369.103 213.445 369.479 213.798 369.832 214.175C370.258 214.519 370.738 214.787 371.251 214.968C374.919 216.409 378.989 216.321 382.596 214.723C382.942 214.52 383.335 214.417 383.734 214.424C384.028 214.484 384.307 214.606 384.552 214.784C384.808 214.937 385.059 215.087 385.319 215.222C385.565 215.609 385.73 216.043 385.805 216.498C385.903 217.356 385.858 218.225 385.673 219.068Z" fill="black"/>
<path d="M389.385 216.165C387.688 215.632 386.057 214.896 384.526 213.973C384.281 213.796 384.002 213.674 383.708 213.613C383.309 213.609 382.915 213.711 382.566 213.912C378.961 215.509 374.892 215.597 371.225 214.157C370.713 213.975 370.233 213.706 369.806 213.364C369.452 212.989 369.076 212.636 368.681 212.307C367.279 211.373 365.34 212.469 363.771 211.868C363.493 211.741 363.209 211.628 362.919 211.531C361.679 211.211 360.417 212.482 359.198 212.096C358.745 213.364 358.41 214.674 358.197 216.007C358.024 217.539 357.931 219.078 357.92 220.62C357.92 221.545 357.877 222.47 357.92 223.395C358.07 223.421 358.214 223.478 358.341 223.563C358.469 223.648 358.578 223.76 358.661 223.891C358.717 224.044 358.74 224.207 358.728 224.37C358.717 224.533 358.671 224.691 358.593 224.834C357.703 227.188 356.799 229.569 355.448 231.678C356.4 232.262 357.284 232.956 358.082 233.748C359.573 235.37 360.306 237.645 361.917 239.145C363.733 240.833 366.32 241.245 368.736 241.578L374.818 242.416C375.848 242.614 376.901 242.651 377.942 242.525C378.519 242.417 379.079 242.23 379.608 241.969C379.954 241.82 380.269 241.606 380.537 241.337C380.762 241.075 380.947 240.779 381.087 240.46C381.569 239.469 382.008 238.457 382.413 237.431C382.553 237.067 382.766 236.641 383.15 236.611C385.409 234.515 387.539 232.366 389.798 230.271C390.706 229.497 391.52 228.613 392.223 227.64C393.344 225.934 392.325 223.518 392.223 221.457C392.211 220.93 392.147 220.406 392.031 219.892C391.665 218.397 390.804 216.608 389.385 216.165Z" fill="#20BDB5"/>
<path opacity="0.1" d="M353.202 207.392C352.861 208.093 352.043 208.431 351.412 208.874L349.252 210.4C349.107 210.533 348.938 210.636 348.754 210.701C348.57 210.765 348.376 210.791 348.182 210.777C348.006 210.71 347.845 210.608 347.708 210.476C347.571 210.344 347.461 210.185 347.385 210.009C347.385 209.908 347.385 209.799 347.385 209.694C347.368 209.339 347.415 208.984 347.521 208.646C347.733 208.15 348.061 207.716 348.476 207.383C349.278 206.601 350.233 206.004 351.276 205.629C351.439 205.564 351.615 205.546 351.787 205.577C351.854 205.594 351.917 205.622 351.975 205.66C352.127 205.831 352.256 206.023 352.358 206.23C352.529 206.589 353.377 207.032 353.202 207.392Z" fill="black"/>
<path d="M358.291 212.013C357.566 211.978 356.974 211.439 356.445 210.926L354.83 209.382C354.722 209.288 354.627 209.179 354.549 209.058C354.461 208.888 354.396 208.706 354.353 208.519C354.01 207.633 353.474 206.841 352.784 206.204C352.664 206.047 352.503 205.928 352.32 205.862C352.147 205.829 351.968 205.847 351.804 205.914C350.761 206.288 349.806 206.886 349.004 207.668C348.589 208.001 348.261 208.435 348.049 208.931C347.942 209.269 347.896 209.624 347.913 209.979C347.923 211.137 348.176 212.28 348.655 213.329C348.727 213.491 348.808 213.653 348.893 213.811C349.462 214.778 350.134 215.676 350.896 216.49L351.911 217.656C352.908 218.805 353.905 219.954 354.988 221.01C355.376 221.436 355.846 221.774 356.369 222.001C356.631 222.112 356.918 222.145 357.197 222.099C357.477 222.052 357.739 221.928 357.954 221.738C358.158 221.495 358.312 221.212 358.406 220.905C359.062 219.151 359.684 217.327 359.723 215.438C359.732 214.681 359.7 213.924 359.629 213.171C359.565 212.373 359.015 212.061 358.291 212.013Z" fill="#20BDB5"/>
<path d="M384.117 273.398C384.093 277.808 383.788 282.212 383.205 286.582C383.12 287.288 383.026 287.994 382.979 288.7C382.839 290.748 383.069 292.804 382.881 294.838C382.783 295.939 382.562 297.031 382.374 298.105C381.541 302.899 381.298 307.783 381.65 312.64C382.238 320.721 380.435 328.806 381.253 336.865C381.353 338.432 381.268 340.006 381.002 341.552C380.849 342.511 380.629 343.458 380.341 344.384C379.719 346.58 379.094 348.772 378.466 350.961C378.392 351.294 378.247 351.606 378.04 351.873C377.823 352.067 377.568 352.21 377.292 352.294C377.016 352.378 376.726 352.4 376.442 352.36C373.983 352.281 371.669 351.189 369.435 350.124C369.179 350.02 368.941 349.871 368.732 349.685C368.268 349.19 368.306 348.409 368.101 347.756C367.897 347.103 367.343 346.489 367.027 345.818C366.768 345.184 366.611 344.51 366.563 343.823C366.279 341.578 366.086 339.325 365.983 337.062C365.821 333.879 367.867 330.95 368.54 327.854C369.819 321.769 368.736 315.244 371.008 309.47C371.724 307.646 370.684 305.436 370.582 303.472C370.545 302.204 370.385 300.944 370.104 299.71C369.678 298.061 368.779 296.509 368.715 294.799C368.668 293.562 369.056 292.357 369.256 291.138C369.522 289.344 369.498 287.517 369.184 285.732C368.958 284.258 368.613 282.785 368.268 281.347L368.191 281.509C367.153 283.597 366.26 285.758 365.519 287.976C365.178 289.051 364.879 290.147 364.453 291.19C364.104 292.067 363.673 292.87 363.251 293.694C361.738 296.601 360.421 299.611 359.309 302.704C358.781 304.221 358.316 305.774 357.856 307.295L354.698 317.818C353.846 320.585 352.912 323.259 352.077 326.022C350.896 329.968 349.716 333.879 348.344 337.737C347.065 341.398 345.544 345.191 346 349.058C344.825 349.627 343.534 349.896 342.236 349.843C340.04 349.643 337.885 349.105 335.844 348.247C335.03 347.936 334.186 347.585 333.636 346.897C332.69 345.709 332.924 343.968 333.21 342.455C333.317 341.773 333.489 341.104 333.721 340.456C334.045 339.649 334.574 338.934 334.906 338.136C335.575 336.606 335.618 334.874 335.882 333.212C336.146 331.551 336.734 329.797 338.115 328.894C338.35 325.973 339.517 323.093 340.161 320.238C340.647 318.077 340.809 315.854 341.192 313.661C341.576 311.469 342.194 309.277 343.481 307.501C343.379 305.67 343.781 303.847 344.64 302.24C344.848 301.887 345.018 301.512 345.147 301.121C345.227 300.741 345.272 300.353 345.284 299.964C345.425 298.44 346.058 297.009 347.082 295.899C346.656 294.299 347.248 292.629 347.781 291.076C348.452 289.096 348.756 287.003 348.676 284.907C348.61 284.322 348.637 283.73 348.757 283.153C348.876 282.715 349.111 282.342 349.247 281.921C349.369 281.406 349.433 280.878 349.439 280.347C349.605 277.975 350.538 275.739 351.57 273.621C352.184 272.385 351.664 270.706 351.791 269.329C352.013 267.04 352.256 264.672 353.36 262.677C353.564 262.3 353.786 261.941 353.969 261.55C354.191 260.993 354.311 260.399 354.323 259.797C354.361 258.793 354.498 257.959 354.148 257.026C356.428 255.074 359.539 254.526 362.506 254.395C365.472 254.263 368.472 254.539 371.374 253.891C372.227 253.693 373.079 253.421 373.978 253.29C376.02 252.983 378.091 253.461 380.107 253.934C379.966 255.25 380.435 256.513 380.959 257.736C383.006 262.691 384.079 268.014 384.117 273.398Z" fill="#33313F"/>
<path opacity="0.1" d="M374.081 274.401L369.184 285.731C368.958 284.258 368.613 282.785 368.268 281.347L368.191 281.509V281.272L370.859 275.234L374.081 274.401Z" fill="black"/>
<path opacity="0.1" d="M388.754 250.734C388.472 250.951 388.134 251.081 387.782 251.106C387.243 251.126 386.703 251.051 386.189 250.883L382.353 249.896C382.233 249.866 382.116 249.823 382.003 249.769C382.067 249.081 382.195 248.283 382.557 248.015C383.099 247.643 384.718 248.142 385.332 248.23C386.389 248.379 387.463 248.555 388.494 248.761C388.654 249.406 388.741 250.068 388.754 250.734Z" fill="black"/>
<path d="M391.997 224.645C392.078 225.009 392.193 225.369 392.262 225.737C392.376 226.641 392.346 227.558 392.172 228.451L391.823 230.959L391.473 233.48L390.122 243.183L389.79 245.586L389.321 248.94C389.299 249.22 389.23 249.493 389.116 249.747C388.977 249.986 388.782 250.184 388.549 250.326C388.316 250.468 388.053 250.547 387.782 250.558C387.243 250.576 386.704 250.5 386.188 250.335L382.353 249.344C382.185 249.313 382.025 249.246 381.884 249.146C381.767 249.029 381.682 248.881 381.639 248.718C381.595 248.556 381.595 248.384 381.637 248.221C381.692 247.888 381.833 247.577 381.88 247.244C381.974 246.595 381.709 245.928 381.803 245.284C381.895 244.873 382.038 244.477 382.229 244.104C383.508 241.197 382.766 237.804 383.201 234.647C383.592 232.162 384.612 229.827 386.159 227.877C387.113 226.646 388.209 225.538 389.423 224.58C389.901 224.198 390.659 223.413 391.26 223.264C392.031 223.098 391.87 224.093 391.997 224.645Z" fill="#20BDB5"/>
<path d="M362.97 186.876C362.689 187.797 363.128 188.81 362.928 189.748C362.71 190.783 361.764 191.502 361.496 192.541C361.069 194.124 362.374 195.566 363.328 196.882C366.865 201.766 366.401 208.527 365.191 214.486C364.217 219.267 362.87 223.959 361.163 228.517C360.63 229.933 360.042 231.371 358.994 232.432C360.954 231.853 363.038 231.27 365.003 231.832C367.492 232.542 369.64 235.028 372.163 234.462C373.68 234.116 374.746 232.73 376.109 231.963C378.666 230.547 381.748 231.437 384.599 231.893C385.213 232.042 385.856 232.009 386.453 231.796C386.909 231.544 387.296 231.178 387.578 230.731C388.85 229.051 389.612 227.023 389.768 224.899C389.836 223.842 389.684 222.782 389.323 221.79C388.963 220.797 388.401 219.895 387.676 219.142C387.071 218.555 386.346 218.081 385.882 217.389C385.43 216.58 385.188 215.665 385.178 214.732C384.842 209.908 385.984 204.985 384.808 200.319C384.382 198.658 383.687 197.066 383.499 195.365C383.265 193.247 383.823 190.98 383.005 189.042C382.361 187.503 380.942 186.411 379.412 185.85C377.882 185.289 376.246 185.131 374.622 184.973C372.286 184.772 363.946 183.741 362.97 186.876Z" fill="#33313F"/>
<g opacity="0.1">
<path opacity="0.1" d="M365.191 214.486C364.222 219.247 362.882 223.92 361.185 228.46C361.479 227.859 361.726 227.227 361.96 226.6C363.669 222.043 365.016 217.351 365.988 212.57C367.202 206.607 367.667 199.854 364.129 194.966C363.277 193.799 362.182 192.536 362.22 191.168C361.905 191.582 361.66 192.048 361.496 192.545C361.069 194.128 362.374 195.571 363.328 196.886C366.866 201.766 366.401 208.527 365.191 214.486Z" fill="black"/>
<path opacity="0.1" d="M362.979 189.305C363.321 188.868 363.576 188.366 363.729 187.828C363.795 187.176 363.777 186.519 363.678 185.872C363.349 186.126 363.103 186.476 362.97 186.876C362.719 187.652 363.008 188.494 362.979 189.305Z" fill="black"/>
<path opacity="0.1" d="M388.379 228.802C388.097 229.247 387.71 229.612 387.254 229.863C386.658 230.079 386.014 230.113 385.4 229.959C382.549 229.521 379.434 228.618 376.911 230.034C375.543 230.797 374.481 232.182 372.96 232.533C370.441 233.112 368.293 230.626 365.804 229.902C364.04 229.398 362.182 229.815 360.405 230.341C360.051 231.115 359.575 231.824 358.994 232.437C360.954 231.858 363.038 231.275 365.003 231.836C367.492 232.546 369.64 235.032 372.163 234.467C373.68 234.12 374.746 232.735 376.109 231.967C378.666 230.551 381.748 231.441 384.599 231.897C385.213 232.046 385.856 232.013 386.453 231.801C386.909 231.549 387.296 231.182 387.578 230.735C388.35 229.687 388.947 228.513 389.342 227.263C389.057 227.799 388.736 228.313 388.379 228.802Z" fill="black"/>
</g>
</g>
<defs>
<linearGradient id="paint0_linear_1493_1159" x1="327.563" y1="268.522" x2="392.769" y2="268.522" gradientUnits="userSpaceOnUse">
<stop stop-color="#808080" stop-opacity="0.25"/>
<stop offset="0.54" stop-color="#808080" stop-opacity="0.12"/>
<stop offset="1" stop-color="#808080" stop-opacity="0.1"/>
</linearGradient>
<clipPath id="clip0_1493_1159">
<rect width="497" height="353" fill="white"/>
</clipPath>
</defs>
</svg>
