<svg width="497" height="353" viewBox="0 0 497 353" fill="none" xmlns="http://www.w3.org/2000/svg">
<g clip-path="url(#clip0_1493_1131)">
<path d="M178.274 203.155C195.306 171.133 227.796 146.546 262.189 148.914C236.819 178.399 222.026 216.523 220.426 256.543C219.861 271.979 220.737 289.21 211.147 300.769C205.181 307.961 196.06 311.444 187.092 312.175C178.125 312.905 169.159 311.174 160.311 309.449L158.164 310.153C157.347 273.33 161.242 235.176 178.274 203.155Z" fill="#F0F0F0"/>
<path d="M262.24 149.685C236.807 162.771 215.12 184.624 201.808 211.277C198.93 217.039 196.479 223.152 195.41 229.615C194.341 236.082 195.088 242.237 197.154 248.378C199.044 253.993 201.585 259.502 202.164 265.51C202.774 271.843 200.594 277.763 196.67 282.463C191.869 288.212 185.421 291.775 179.002 295.025C171.875 298.633 164.418 302.261 159.37 308.995C158.759 309.811 157.61 308.749 158.221 307.934C167.003 296.217 182.037 294.015 192.462 284.576C197.326 280.172 200.978 274.174 200.748 267.146C200.546 261.001 197.931 255.317 195.972 249.65C193.915 243.699 192.889 237.716 193.627 231.372C194.381 224.882 196.613 218.653 199.341 212.838C205.493 199.722 213.911 187.681 223.555 177.273C234.639 165.308 247.556 155.458 261.748 148.149C262.626 147.697 263.113 149.236 262.24 149.685Z" fill="white"/>
<path d="M205.707 202.369C201.808 199.323 199.05 194.894 197.924 189.874C196.799 184.854 197.379 179.569 199.563 174.965C200.007 174.035 201.381 174.73 200.935 175.661C198.895 179.945 198.354 184.867 199.411 189.539C200.468 194.212 203.054 198.326 206.7 201.141C207.492 201.753 206.495 202.979 205.707 202.369Z" fill="white"/>
<path d="M195.846 245.666C205.615 244.141 214.488 238.736 220.695 230.529C221.309 229.715 222.458 230.777 221.845 231.589C215.371 240.117 206.127 245.722 195.957 247.286C194.987 247.434 194.881 245.814 195.846 245.666V245.666Z" fill="white"/>
<path d="M235.389 167.306C236.668 168.821 238.279 169.973 240.077 170.658C241.875 171.343 243.804 171.54 245.691 171.231C246.659 171.07 246.764 172.69 245.803 172.85C243.716 173.181 241.586 172.961 239.598 172.208C237.609 171.456 235.824 170.195 234.397 168.535C234.25 168.39 234.16 168.192 234.146 167.979C234.131 167.766 234.193 167.556 234.318 167.39C234.45 167.228 234.637 167.128 234.838 167.113C235.038 167.097 235.236 167.166 235.389 167.306Z" fill="white"/>
<path d="M330.62 249.931C330.019 250.05 329.417 250.169 328.811 250.301C320.735 251.947 312.798 254.292 305.077 257.312C304.477 257.536 303.871 257.772 303.278 258.013C284.751 265.501 267.685 276.601 252.948 290.748C247.089 296.383 241.64 302.486 236.647 309.005C229.752 318.007 222.947 328.355 213.937 334.225C213.004 334.849 212.035 335.41 211.037 335.906L159.135 312.898C159.041 312.782 158.942 312.679 158.848 312.563L156.737 311.746C156.972 311.39 157.224 311.027 157.459 310.672C157.595 310.465 157.742 310.263 157.878 310.056C157.973 309.92 158.067 309.784 158.145 309.655C158.176 309.61 158.208 309.565 158.234 309.532C158.312 309.403 158.397 309.293 158.47 309.177C159.87 307.142 161.286 305.115 162.718 303.094C162.723 303.082 162.723 303.082 162.739 303.074C173.685 287.709 185.928 273.185 199.844 261.11C200.263 260.747 200.686 260.37 201.128 260.018C207.429 254.612 214.133 249.765 221.173 245.527C225.035 243.219 229.003 241.121 233.063 239.243C243.563 234.409 254.709 231.371 266.091 230.24C288.783 227.988 311.897 233.517 329.301 248.753C329.746 249.143 330.18 249.528 330.62 249.931Z" fill="#F0F0F0"/>
<path d="M330.23 250.583C302.552 244.666 272.925 248.16 247.282 260.875C241.738 263.624 236.337 266.928 231.843 271.4C227.346 275.875 224.475 281.271 222.665 287.504C221.011 293.203 219.936 299.237 217.014 304.406C213.934 309.855 208.858 313.18 203.078 314.407C196.005 315.908 188.85 314.603 181.894 313.068C174.17 311.363 166.174 309.461 158.349 311.591C157.401 311.848 157.082 310.261 158.029 310.004C171.642 306.299 184.886 314.214 198.527 313.386C204.892 313 211.187 310.561 214.962 304.802C218.263 299.765 219.376 293.544 221.005 287.758C222.715 281.684 225.266 276.246 229.429 271.655C233.688 266.959 238.979 263.422 244.433 260.534C256.733 254.02 270.238 249.823 283.801 247.718C299.391 245.297 315.254 245.744 330.702 249.04C331.659 249.245 331.18 250.786 330.23 250.583V250.583Z" fill="white"/>
<path d="M255.413 256.272C254.016 251.33 254.309 246.019 256.238 241.287C258.167 236.554 261.608 232.709 265.945 230.437C266.824 229.981 267.529 231.419 266.649 231.876C262.606 233.984 259.402 237.566 257.614 241.977C255.825 246.388 255.572 251.336 256.898 255.93C257.185 256.928 255.698 257.265 255.413 256.272Z" fill="white"/>
<path d="M223.148 284.497C231.808 289.565 241.938 290.959 251.517 288.4C252.465 288.145 252.785 289.733 251.837 289.987C241.864 292.63 231.326 291.157 222.325 285.861C221.467 285.356 222.295 283.994 223.148 284.497Z" fill="white"/>
<path d="M298.865 247.375C299.033 249.407 299.67 251.363 300.72 253.068C301.769 254.772 303.199 256.17 304.879 257.138C305.742 257.632 304.914 258.993 304.056 258.502C302.204 257.424 300.627 255.877 299.463 253.997C298.3 252.117 297.584 249.961 297.38 247.718C297.344 247.508 297.385 247.291 297.493 247.112C297.601 246.933 297.769 246.805 297.962 246.753C298.159 246.709 298.364 246.749 298.533 246.866C298.702 246.982 298.822 247.165 298.865 247.375Z" fill="white"/>
<path d="M231.75 287.89C224.481 250.328 215.395 237.805 215.395 237.805L211.924 234.928L207.75 231.463L207.77 231.017L206.78 230.658L206.548 230.465L206.167 230.152L206.105 230.222L205.976 230.366L187.087 223.504L163.123 214.804L152.027 199.389C150.219 196.878 147.893 194.849 145.229 193.461C142.565 192.072 139.637 191.361 136.673 191.385L101.233 191.665C96.4417 191.703 91.8365 193.655 88.3232 197.138L65.0295 220.23L28.7335 238.757L28.6722 238.691L28.2911 238.982L22.683 241.848L22.9144 243.136L19.4434 245.813C19.4434 245.813 10.3575 257.465 3.08873 292.416C1.23964 301.309 0.329452 320.386 0.000923236 343.894C-0.0155788 345.083 0.189286 346.264 0.6036 347.368C1.01791 348.472 1.63341 349.477 2.41431 350.324C3.19521 351.171 4.12592 351.844 5.15234 352.304C6.17876 352.763 7.2804 353 8.3932 353H202.258V353H226.454C227.566 353 228.667 352.763 229.693 352.304C230.719 351.845 231.649 351.173 232.43 350.327C233.21 349.48 233.826 348.477 234.241 347.374C234.656 346.272 234.862 345.092 234.847 343.903C234.526 318.323 233.616 297.535 231.75 287.89Z" fill="#334D5C"/>
<path d="M256.624 32.7568C249.081 32.7568 241.848 35.9591 236.514 41.6591C231.181 47.3591 228.185 55.09 228.185 63.151C228.185 71.212 231.181 78.9429 236.514 84.6429C241.848 90.3429 249.081 93.5452 256.624 93.5452H468.561C476.104 93.5452 483.337 90.3429 488.67 84.6429C494.004 78.9429 497 71.212 497 63.151C497 55.09 494.004 47.3591 488.67 41.6591C483.337 35.9591 476.104 32.7568 468.561 32.7568H256.624Z" fill="#E5E5E5"/>
<path d="M256.624 38.9082C250.608 38.9082 244.838 41.4624 240.584 46.0088C236.33 50.5552 233.94 56.7216 233.94 63.1512C233.94 69.5808 236.33 75.7471 240.584 80.2936C244.838 84.84 250.608 87.3942 256.624 87.3942H468.561C474.577 87.3942 480.347 84.84 484.601 80.2936C488.855 75.7471 491.245 69.5808 491.245 63.1512C491.245 56.7216 488.855 50.5552 484.601 46.0088C480.347 41.4624 474.577 38.9082 468.561 38.9082H256.624Z" fill="white"/>
<path d="M124.519 177.155C150.16 177.155 170.947 154.939 170.947 127.534C170.947 100.129 150.16 77.9131 124.519 77.9131C98.8765 77.9131 78.0896 100.129 78.0896 127.534C78.0896 154.939 98.8765 177.155 124.519 177.155Z" fill="#9E616A"/>
<path d="M112.641 174.726C112.443 174.259 112.245 173.791 112.048 173.321C112.124 173.323 112.199 173.335 112.275 173.337L112.641 174.726Z" fill="#334D5C"/>
<path d="M76.7985 80.1697C79.1468 78.1676 81.8913 76.3255 84.8937 76.4291C87.8959 76.5325 90.9404 79.4305 90.3184 82.5713C95.833 72.1359 104.611 64.1099 115.11 59.902C125.61 55.6942 137.161 55.5734 147.736 59.5609C155.198 62.3745 162.516 68.0034 164.23 76.2594C164.67 78.3787 164.764 80.7025 166.003 82.4235C167.564 84.5933 170.551 85.0841 173.01 84.3208C173.035 84.3132 173.059 84.3054 173.084 84.2976C173.499 84.146 173.948 84.1311 174.371 84.2548C174.795 84.3786 175.174 84.6353 175.459 84.9917C175.745 85.3482 175.923 85.788 175.973 86.2543C176.022 86.7206 175.939 87.1919 175.734 87.6072L173.623 91.8156C176.284 92.4497 179.05 92.3868 181.684 91.6324C182.121 91.5098 182.584 91.5348 183.007 91.7041C183.431 91.8734 183.795 92.1786 184.05 92.5779C184.305 92.9772 184.438 93.4511 184.431 93.9344C184.424 94.4178 184.278 94.887 184.011 95.2777C177.049 105.493 165.418 112.09 153.549 112.012C145.113 111.957 136.59 108.85 128.38 110.923C125.204 111.725 122.236 113.277 119.695 115.465C117.153 117.653 115.102 120.421 113.691 123.567C112.281 126.712 111.548 130.155 111.545 133.643C111.542 137.131 112.27 140.576 113.676 143.724C111.154 140.776 106.278 141.474 103.698 144.364C101.118 147.255 100.45 151.57 100.71 155.555C101.108 161.651 103.342 167.394 105.698 172.984C85.9476 172.32 67.267 157.513 60.9791 137.486C54.6649 117.375 61.2824 93.3983 76.7985 80.1697Z" fill="#334D5C"/>
<path opacity="0.2" d="M45.698 276.55L58.7203 352.273L66.5339 353L45.698 276.55Z" fill="black"/>
<path opacity="0.2" d="M189.141 270.839L176.119 352.218L168.305 353L189.141 270.839Z" fill="black"/>
<path d="M87.9054 54.6854C85.4086 55.7997 82.8033 54.5785 81.7106 51.7819C80.6013 48.9426 81.6374 46.0603 84.1743 44.9281C86.7114 43.7959 89.2703 45.0201 90.3975 47.9052C91.5079 50.747 90.483 53.5351 87.9054 54.6854ZM83.1226 39.3394L81.1373 40.2254C80.6414 40.4441 80.0867 40.4559 79.583 40.2584C79.0793 40.061 78.6633 39.6687 78.4172 39.1591L78.319 38.9539C76.1829 34.8366 75.9383 29.8326 77.5959 24.0887C79.1315 18.9362 79.7693 15.3124 78.4866 12.0295C77.0037 8.23379 73.8369 7.04479 69.7987 8.7672C68.2324 9.46616 67.7341 9.45502 66.5015 10.7618C66.2334 11.0495 65.9138 11.2766 65.5618 11.4294C65.2098 11.5823 64.8326 11.6579 64.4527 11.6516C64.0855 11.647 63.7229 11.5633 63.3865 11.4057C63.0502 11.2481 62.7469 11.0197 62.495 10.7341C62.0095 10.1838 61.7375 9.4571 61.7339 8.70076C61.7303 7.94443 61.9955 7.21482 62.4757 6.65929C64.5474 4.3415 67.0462 2.50784 69.8143 1.274C78.4908 -2.59811 82.8586 3.11851 84.8574 8.23435C86.8124 13.2382 85.7127 17.881 83.9457 23.8938C82.4649 28.8901 82.5512 32.5923 84.2332 36.2734C84.3547 36.5517 84.4222 36.8534 84.4319 37.1603C84.4415 37.4672 84.393 37.773 84.2893 38.0594C84.1855 38.3457 84.0287 38.6067 83.8282 38.8267C83.6277 39.0466 83.3877 39.221 83.1226 39.3394L83.1226 39.3394Z" fill="#20BDB5"/>
<path d="M303.438 77.6471H261.27C261.136 77.6481 261.004 77.6207 260.88 77.5666C260.756 77.5125 260.643 77.4327 260.548 77.3318C260.453 77.2309 260.377 77.1109 260.326 76.9787C260.274 76.8465 260.248 76.7048 260.248 76.5616C260.248 76.4184 260.274 76.2767 260.326 76.1445C260.377 76.0123 260.453 75.8923 260.548 75.7914C260.643 75.6905 260.756 75.6107 260.88 75.5566C261.004 75.5025 261.136 75.4751 261.27 75.4761H303.438C303.706 75.478 303.963 75.5933 304.152 75.7966C304.341 76 304.447 76.275 304.447 76.5616C304.447 76.8482 304.341 77.1232 304.152 77.3266C303.963 77.5299 303.706 77.6451 303.438 77.6471Z" fill="#20BDB5"/>
<path d="M356.93 78.0089H314.763C314.629 78.0099 314.496 77.9826 314.372 77.9284C314.248 77.8743 314.135 77.7945 314.04 77.6936C313.945 77.5927 313.869 77.4727 313.818 77.3405C313.766 77.2084 313.74 77.0666 313.74 76.9234C313.74 76.7803 313.766 76.6385 313.818 76.5063C313.869 76.3741 313.945 76.2541 314.04 76.1532C314.135 76.0523 314.248 75.9725 314.372 75.9184C314.496 75.8643 314.629 75.8369 314.763 75.8379H356.93C357.064 75.8369 357.197 75.8643 357.321 75.9184C357.445 75.9725 357.558 76.0523 357.653 76.1532C357.748 76.2541 357.823 76.3741 357.875 76.5063C357.926 76.6385 357.953 76.7803 357.953 76.9234C357.953 77.0666 357.926 77.2084 357.875 77.3405C357.823 77.4727 357.748 77.5927 357.653 77.6936C357.558 77.7945 357.445 77.8743 357.321 77.9284C357.197 77.9826 357.064 78.0099 356.93 78.0089Z" fill="#20BDB5"/>
<path d="M410.422 78.3707H368.255C367.986 78.3688 367.73 78.2536 367.541 78.0502C367.352 77.8468 367.246 77.5718 367.246 77.2852C367.246 76.9986 367.352 76.7236 367.541 76.5203C367.73 76.3169 367.986 76.2017 368.255 76.1997H410.422C410.556 76.1988 410.689 76.2261 410.813 76.2802C410.937 76.3343 411.05 76.4141 411.145 76.515C411.24 76.6159 411.315 76.7359 411.367 76.8681C411.418 77.0003 411.445 77.1421 411.445 77.2852C411.445 77.4284 411.418 77.5702 411.367 77.7024C411.315 77.8345 411.24 77.9545 411.145 78.0554C411.05 78.1563 410.937 78.2361 410.813 78.2902C410.689 78.3444 410.556 78.3717 410.422 78.3707H410.422Z" fill="#20BDB5"/>
<path d="M463.914 78.7325H421.747C421.479 78.7306 421.222 78.6153 421.033 78.412C420.844 78.2086 420.738 77.9336 420.738 77.647C420.738 77.3604 420.844 77.0854 421.033 76.882C421.222 76.6787 421.479 76.5635 421.747 76.5615H463.914C464.183 76.5635 464.439 76.6787 464.628 76.882C464.817 77.0854 464.923 77.3604 464.923 77.647C464.923 77.9336 464.817 78.2086 464.628 78.412C464.439 78.6153 464.183 78.7306 463.914 78.7325Z" fill="#20BDB5"/>
<path d="M282.261 67.6573C286.59 67.6573 290.099 63.9072 290.099 59.2813C290.099 54.6553 286.59 50.9053 282.261 50.9053C277.933 50.9053 274.424 54.6553 274.424 59.2813C274.424 63.9072 277.933 67.6573 282.261 67.6573Z" fill="#20BDB5"/>
<path d="M336.077 67.6573C340.405 67.6573 343.914 63.9072 343.914 59.2813C343.914 54.6553 340.405 50.9053 336.077 50.9053C331.748 50.9053 328.24 54.6553 328.24 59.2813C328.24 63.9072 331.748 67.6573 336.077 67.6573Z" fill="#20BDB5"/>
<path d="M389.892 67.6573C394.22 67.6573 397.729 63.9072 397.729 59.2813C397.729 54.6553 394.22 50.9053 389.892 50.9053C385.564 50.9053 382.055 54.6553 382.055 59.2813C382.055 63.9072 385.564 67.6573 389.892 67.6573Z" fill="#20BDB5"/>
<path d="M443.707 67.6573C448.036 67.6573 451.544 63.9072 451.544 59.2813C451.544 54.6553 448.036 50.9053 443.707 50.9053C439.379 50.9053 435.87 54.6553 435.87 59.2813C435.87 63.9072 439.379 67.6573 443.707 67.6573Z" fill="#20BDB5"/>
</g>
<defs>
<clipPath id="clip0_1493_1131">
<rect width="497" height="353" fill="white"/>
</clipPath>
</defs>
</svg>
