<svg width="389" height="439" viewBox="0 0 389 439" fill="none" xmlns="http://www.w3.org/2000/svg">
<path d="M373.219 194H231.781C227.862 193.996 224.105 192.591 221.334 190.094C218.563 187.597 217.004 184.211 217 180.679V14.3206C217.004 10.7889 218.563 7.40312 221.334 4.90589C224.105 2.40867 227.862 1.00398 231.781 1H373.219C377.138 1.00398 380.895 2.40867 383.666 4.90589C386.437 7.40312 387.996 10.7889 388 14.3206V180.679C387.996 184.211 386.437 187.597 383.666 190.094C380.895 192.591 377.138 193.996 373.219 194Z" fill="#F0F0F0"/>
<path d="M373.454 194H231.546C227.424 193.996 223.473 192.525 220.558 189.911C217.644 187.297 216.005 183.753 216 180.056V13.9433C216.005 10.2466 217.644 6.70255 220.559 4.08858C223.473 1.47461 227.424 0.00422838 231.546 0H373.454C377.575 0.00416375 381.527 1.47451 384.441 4.08849C387.356 6.70246 388.995 10.2466 389 13.9433V180.056C388.995 183.753 387.356 187.297 384.441 189.911C381.527 192.525 377.575 193.996 373.454 194ZM231.546 1.28477C227.804 1.28855 224.217 2.62343 221.571 4.99655C218.925 7.36968 217.437 10.5872 217.432 13.9433V180.056C217.437 183.412 218.925 186.63 221.571 189.003C224.217 191.376 227.804 192.711 231.546 192.715H373.454C377.196 192.711 380.783 191.377 383.429 189.003C386.075 186.63 387.563 183.413 387.568 180.056V13.9433C387.563 10.5872 386.075 7.36959 383.429 4.99647C380.783 2.62334 377.196 1.28849 373.454 1.28477H231.546Z" fill="#20BDB5"/>
<path d="M300 214C314.359 214 326 203.703 326 191C326 178.297 314.359 168 300 168C285.641 168 274 178.297 274 191C274 203.703 285.641 214 300 214Z" fill="#20BDB5"/>
<path d="M296.594 203C296.163 203 295.737 202.907 295.352 202.729C294.966 202.551 294.63 202.292 294.371 201.974L287.556 193.584C287.337 193.315 287.177 193.008 287.087 192.682C286.996 192.355 286.976 192.016 287.028 191.682C287.08 191.349 287.202 191.028 287.388 190.738C287.574 190.448 287.82 190.195 288.112 189.993C288.404 189.791 288.736 189.644 289.089 189.56C289.443 189.476 289.811 189.458 290.172 189.506C290.533 189.553 290.881 189.666 291.195 189.838C291.509 190.009 291.783 190.236 292.002 190.506L296.461 195.994L307.914 180.136C308.323 179.572 308.959 179.181 309.68 179.049C310.402 178.917 311.15 179.054 311.762 179.431C312.374 179.808 312.8 180.393 312.945 181.058C313.091 181.724 312.944 182.416 312.538 182.982L298.907 201.858C298.66 202.199 298.329 202.481 297.94 202.679C297.551 202.878 297.116 202.988 296.672 202.999C296.646 203 296.62 203 296.594 203Z" fill="white"/>
<path d="M277.919 283H6.0806C4.4685 282.998 2.92295 282.42 1.78302 281.391C0.643089 280.363 0.00185924 278.968 0 277.514V55.4861C0.00179877 54.0316 0.64301 52.6372 1.78296 51.6086C2.9229 50.5801 4.46848 50.0016 6.0806 50H277.919C279.532 50.0016 281.077 50.5801 282.217 51.6086C283.357 52.6371 283.998 54.0316 284 55.4861V277.514C283.998 278.968 283.357 280.363 282.217 281.391C281.077 282.42 279.531 282.998 277.919 283Z" fill="#3F3D56"/>
<path d="M271.932 278H12.0682C10.4594 277.998 8.91701 277.422 7.7794 276.396C6.64178 275.371 6.00186 273.981 6 272.53V61.4696C6.0018 60.0194 6.6417 58.6292 7.77933 57.6038C8.91696 56.5784 10.4594 56.0016 12.0682 56H271.932C273.541 56.0016 275.083 56.5784 276.221 57.6038C277.358 58.6292 277.998 60.0194 278 61.4696V272.53C277.998 273.981 277.358 275.371 276.221 276.396C275.083 277.422 273.541 277.998 271.932 278Z" fill="white"/>
<path d="M25.0342 78.4312C55.6197 77.9357 86.2085 77.8645 116.8 78.2177C147.388 78.5729 177.965 79.3544 208.533 80.5621C225.685 81.2398 242.831 82.0518 259.969 82.9979C261.346 83.0738 261.341 81.0778 259.969 81.0022C229.432 79.3186 198.873 78.0588 168.292 77.2229C137.715 76.3892 107.13 75.9818 76.5351 76.0006C59.3672 76.0113 42.2002 76.1562 25.0342 76.4355C23.6574 76.4578 23.6531 78.4536 25.0342 78.4312V78.4312Z" fill="#3F3D56"/>
<path d="M239 65.9977L252 65.3646C253.328 65.3 253.339 63.9371 252 64.0023L239 64.6354C237.672 64.7 237.661 66.0629 239 65.9977Z" fill="#3F3D56"/>
<path d="M239 77.9966L252 77.0469C253.328 76.9499 253.339 74.9056 252 75.0034L239 75.9531C237.672 76.0501 237.661 78.0944 239 77.9966Z" fill="#3F3D56"/>
<path d="M238.023 72.6602L256.977 73.996C258.345 74.0924 258.337 72.4356 256.977 72.3398L238.023 71.004C236.655 70.9076 236.663 72.5644 238.023 72.6602Z" fill="#3F3D56"/>
<path d="M32.7652 64.0001C31.8456 63.995 30.9447 64.2299 30.1747 64.6752C29.4047 65.1206 28.7998 65.7569 28.4353 66.5047C28.0276 67.2365 27.9017 68.0666 28.077 68.8678C28.2522 69.6691 28.719 70.3974 29.4058 70.9415C30.0515 71.428 30.8259 71.7616 31.6566 71.9111C32.4874 72.0606 33.3473 72.0211 34.1562 71.7963C34.9834 71.5404 35.7007 71.0637 36.2093 70.4319C36.718 69.8 36.993 69.044 36.9966 68.268C37.0335 67.4071 36.7702 66.5569 36.2424 65.8332C35.7146 65.1095 34.9479 64.5473 34.0466 64.2231C33.7758 64.158 33.4869 64.1902 33.2429 64.313C32.9989 64.4357 32.8195 64.6388 32.744 64.8782C32.6772 65.1178 32.7166 65.371 32.8542 65.5856C32.9918 65.8002 33.217 65.9599 33.4836 66.0319C33.6681 66.0951 33.315 65.9516 33.4873 66.0347C33.5582 66.0689 33.6304 66.0998 33.6999 66.1363C33.7591 66.1674 33.8157 66.2013 33.8733 66.2346C34.0709 66.3488 33.7767 66.1507 33.9031 66.2534C34.0127 66.3425 34.1212 66.4294 34.2208 66.5277C34.2585 66.5649 34.406 66.6682 34.2914 66.596C34.2037 66.5407 34.2575 66.5537 34.2914 66.5981C34.317 66.6318 34.3442 66.6645 34.3695 66.6984C34.4521 66.8091 34.5271 66.924 34.5943 67.0425C34.6098 67.07 34.624 67.0981 34.6399 67.1254C34.6695 67.1765 34.7125 67.1899 34.6428 67.1258C34.5762 67.0646 34.6186 67.0688 34.6424 67.1277C34.6581 67.1664 34.6752 67.2047 34.6904 67.2435C34.7401 67.37 34.7818 67.4989 34.8153 67.6295C34.8308 67.6899 34.8433 67.7506 34.8566 67.8114C34.9039 68.0267 34.8498 67.6775 34.8612 67.8374C34.8707 67.971 34.8819 68.1032 34.8792 68.2373C34.878 68.2987 34.875 68.36 34.8702 68.4212C34.8678 68.4517 34.8639 68.4822 34.8616 68.5127C34.8507 68.6599 34.8503 68.459 34.8736 68.4452C34.8252 68.5701 34.793 68.6996 34.7779 68.831C34.7589 68.8893 34.7364 68.9463 34.7153 69.004C34.6416 69.2052 34.7844 68.8943 34.7059 69.0319C34.6413 69.15 34.569 69.2648 34.4896 69.3756C34.4551 69.422 34.3249 69.5268 34.4313 69.4539C34.5468 69.3747 34.3708 69.511 34.3333 69.5461C34.285 69.5912 34.235 69.6346 34.1831 69.6766C34.1499 69.7053 34.1148 69.7323 34.0781 69.7574C34.0713 69.7544 34.255 69.6488 34.156 69.7047C34.0302 69.7758 33.911 69.8518 33.7784 69.9137C33.763 69.9209 33.5934 69.9905 33.5941 69.9929C33.5868 69.9676 33.8121 69.9227 33.6575 69.9669C33.625 69.9762 33.5931 69.9875 33.5607 69.9971C33.42 70.0391 33.2763 70.073 33.1306 70.0986C33.0972 70.1045 33.0619 70.1075 33.0291 70.115C32.9196 70.1401 33.1337 70.1003 33.1401 70.1036C33.0592 70.1005 32.9782 70.1068 32.8991 70.1225C32.7489 70.1301 32.5983 70.1301 32.448 70.1224C32.4132 70.1207 32.3785 70.1176 32.3438 70.1158C32.2631 70.1117 32.2039 70.0602 32.3113 70.1161C32.3941 70.1592 32.3872 70.1277 32.3138 70.1157C32.2795 70.1101 32.245 70.1054 32.2107 70.0997C32.062 70.075 31.9149 70.0431 31.7702 70.0041C31.6923 69.9831 31.616 69.9586 31.5391 69.9348C31.5056 69.9262 31.473 69.9151 31.4417 69.9016C31.4412 69.8939 31.6397 69.9856 31.5349 69.9356C31.4027 69.8725 31.2659 69.8195 31.1367 69.7505C31.0678 69.7137 31.0016 69.6737 30.9345 69.6342C30.9051 69.6185 30.877 69.6007 30.8507 69.5811C30.853 69.5732 31.0149 69.7061 30.9299 69.6343C30.8224 69.5436 30.7074 69.4623 30.6055 69.3657C30.5822 69.3436 30.5602 69.3204 30.537 69.2983L30.5145 69.2755C30.4571 69.2134 30.456 69.2137 30.5113 69.2764C30.5674 69.2911 30.5649 69.3456 30.5116 69.2748C30.4927 69.2495 30.4725 69.225 30.4535 69.1997C30.3675 69.0912 30.2942 68.9752 30.2346 68.8535C30.2398 68.85 30.3264 69.0792 30.2602 68.9062C30.2477 68.8735 30.2336 68.8414 30.2214 68.8086C30.197 68.7436 30.1756 68.6779 30.1571 68.6115C30.1388 68.5457 30.1294 68.4778 30.1109 68.4123C30.0798 68.3018 30.1291 68.4994 30.1235 68.4945C30.1058 68.4791 30.1133 68.3833 30.112 68.3603C30.1035 68.2132 30.1225 68.0703 30.1254 67.924C30.1277 67.8107 30.1148 68.0123 30.1122 68.0064C30.1128 67.9725 30.1196 67.9389 30.1323 67.9068C30.1514 67.8297 30.1693 67.7526 30.1928 67.6763C30.2196 67.5889 30.2506 67.5027 30.2856 67.4174C30.2986 67.3855 30.3146 67.3541 30.3267 67.322C30.3713 67.2042 30.2385 67.4642 30.3117 67.358C30.4125 67.2119 30.4875 67.0538 30.5945 66.9095C30.6198 66.8753 30.7739 66.6847 30.6922 66.7809C30.6107 66.8767 30.7759 66.6951 30.8071 66.6643C30.937 66.5362 31.0898 66.431 31.2243 66.3083C31.3039 66.2357 31.1687 66.3441 31.1607 66.3491C31.2024 66.3228 31.2432 66.2954 31.2853 66.2697C31.3589 66.2248 31.4342 66.1824 31.5113 66.1424C31.5982 66.0973 31.6964 66.0637 31.7806 66.016C31.8801 65.9596 31.7046 66.0407 31.7014 66.0424C31.7469 66.0224 31.7943 66.0064 31.8433 65.9945C31.9253 65.9688 32.2819 65.8325 32.3567 65.8751C32.3533 65.8732 32.0859 65.8942 32.3021 65.8819C32.3532 65.8789 32.404 65.8745 32.4552 65.8727C32.5587 65.8689 32.6618 65.8712 32.7652 65.8759C33.0455 65.8743 33.3138 65.7749 33.512 65.5994C33.7102 65.4239 33.8223 65.1862 33.8242 64.938C33.8182 64.6909 33.7047 64.4554 33.5074 64.2807C33.3101 64.1059 33.0442 64.0054 32.7652 64.0001Z" fill="#3F3D56"/>
<path d="M47.7652 64.0001C46.8456 63.995 45.9447 64.2299 45.1747 64.6752C44.4047 65.1206 43.7998 65.7569 43.4353 66.5047C43.0276 67.2365 42.9017 68.0666 43.077 68.8678C43.2522 69.6691 43.719 70.3974 44.4058 70.9415C45.0515 71.428 45.8259 71.7616 46.6566 71.9111C47.4874 72.0606 48.3473 72.0211 49.1562 71.7963C49.9834 71.5404 50.7007 71.0637 51.2093 70.4319C51.718 69.8 51.993 69.044 51.9966 68.268C52.0335 67.4071 51.7702 66.5569 51.2424 65.8332C50.7146 65.1095 49.9479 64.5473 49.0466 64.2231C48.7758 64.158 48.4869 64.1902 48.2429 64.313C47.9989 64.4357 47.8195 64.6388 47.744 64.8782C47.6772 65.1178 47.7166 65.371 47.8542 65.5856C47.9918 65.8002 48.217 65.9599 48.4836 66.0319C48.6681 66.0951 48.315 65.9516 48.4873 66.0347C48.5582 66.0689 48.6304 66.0998 48.6999 66.1363C48.7591 66.1674 48.8157 66.2013 48.8733 66.2346C49.0709 66.3488 48.7767 66.1507 48.9031 66.2534C49.0127 66.3425 49.1212 66.4294 49.2208 66.5277C49.2585 66.5649 49.406 66.6682 49.2914 66.596C49.2037 66.5407 49.2575 66.5537 49.2914 66.5981C49.317 66.6318 49.3442 66.6645 49.3695 66.6984C49.4521 66.8091 49.5271 66.924 49.5943 67.0425C49.6098 67.07 49.624 67.0981 49.6399 67.1254C49.6695 67.1765 49.7125 67.1899 49.6428 67.1258C49.5762 67.0646 49.6186 67.0688 49.6424 67.1277C49.6581 67.1664 49.6752 67.2047 49.6904 67.2435C49.7401 67.37 49.7818 67.4989 49.8153 67.6295C49.8308 67.6899 49.8433 67.7506 49.8566 67.8114C49.9039 68.0267 49.8498 67.6775 49.8612 67.8374C49.8707 67.971 49.8819 68.1032 49.8792 68.2373C49.878 68.2987 49.875 68.36 49.8702 68.4212C49.8678 68.4517 49.8639 68.4822 49.8616 68.5127C49.8507 68.6599 49.8503 68.459 49.8736 68.4452C49.8252 68.5701 49.793 68.6996 49.7779 68.831C49.7589 68.8893 49.7364 68.9463 49.7153 69.004C49.6416 69.2052 49.7844 68.8943 49.7059 69.0319C49.6413 69.15 49.569 69.2648 49.4896 69.3756C49.4551 69.422 49.3249 69.5268 49.4313 69.4539C49.5468 69.3747 49.3708 69.511 49.3333 69.5461C49.285 69.5912 49.235 69.6346 49.1831 69.6766C49.1499 69.7053 49.1148 69.7323 49.0781 69.7574C49.0713 69.7544 49.255 69.6488 49.156 69.7047C49.0302 69.7758 48.911 69.8518 48.7784 69.9137C48.763 69.9209 48.5934 69.9905 48.5941 69.9929C48.5868 69.9676 48.8121 69.9227 48.6575 69.9669C48.625 69.9762 48.5931 69.9875 48.5607 69.9971C48.42 70.0391 48.2763 70.073 48.1306 70.0986C48.0972 70.1045 48.0619 70.1075 48.0291 70.115C47.9196 70.1401 48.1337 70.1003 48.1401 70.1036C48.0592 70.1005 47.9782 70.1068 47.8991 70.1225C47.7489 70.1301 47.5983 70.1301 47.448 70.1224C47.4132 70.1207 47.3785 70.1176 47.3438 70.1158C47.2631 70.1117 47.2039 70.0602 47.3113 70.1161C47.3941 70.1592 47.3872 70.1277 47.3138 70.1157C47.2795 70.1101 47.245 70.1054 47.2107 70.0997C47.062 70.075 46.9149 70.0431 46.7702 70.0041C46.6923 69.9831 46.616 69.9586 46.5391 69.9348C46.5056 69.9262 46.473 69.9151 46.4417 69.9016C46.4412 69.8939 46.6397 69.9856 46.5349 69.9356C46.4027 69.8725 46.2659 69.8195 46.1367 69.7505C46.0678 69.7137 46.0016 69.6737 45.9345 69.6342C45.9051 69.6185 45.877 69.6007 45.8507 69.5811C45.853 69.5732 46.0149 69.7061 45.9299 69.6343C45.8224 69.5436 45.7074 69.4623 45.6055 69.3657C45.5822 69.3436 45.5602 69.3204 45.537 69.2983L45.5145 69.2755C45.4571 69.2134 45.456 69.2137 45.5113 69.2764C45.5674 69.2911 45.5649 69.3456 45.5116 69.2748C45.4927 69.2495 45.4725 69.225 45.4535 69.1997C45.3675 69.0912 45.2942 68.9752 45.2346 68.8535C45.2398 68.85 45.3264 69.0792 45.2602 68.9062C45.2477 68.8735 45.2336 68.8414 45.2214 68.8086C45.197 68.7436 45.1756 68.6779 45.1571 68.6115C45.1388 68.5457 45.1294 68.4778 45.1109 68.4123C45.0798 68.3018 45.1291 68.4994 45.1235 68.4945C45.1058 68.4791 45.1133 68.3833 45.112 68.3603C45.1035 68.2132 45.1225 68.0703 45.1254 67.924C45.1277 67.8107 45.1148 68.0123 45.1122 68.0064C45.1128 67.9725 45.1196 67.9389 45.1323 67.9068C45.1514 67.8297 45.1693 67.7526 45.1928 67.6763C45.2196 67.5889 45.2506 67.5027 45.2856 67.4174C45.2986 67.3855 45.3146 67.3541 45.3267 67.322C45.3713 67.2042 45.2385 67.4642 45.3117 67.358C45.4125 67.2119 45.4875 67.0538 45.5945 66.9095C45.6198 66.8753 45.7739 66.6847 45.6922 66.7809C45.6107 66.8767 45.7759 66.6951 45.8071 66.6643C45.937 66.5362 46.0898 66.431 46.2243 66.3083C46.3039 66.2357 46.1687 66.3441 46.1607 66.3491C46.2024 66.3228 46.2432 66.2954 46.2853 66.2697C46.3589 66.2248 46.4342 66.1824 46.5113 66.1424C46.5982 66.0973 46.6964 66.0637 46.7806 66.016C46.8801 65.9596 46.7046 66.0407 46.7014 66.0424C46.7469 66.0224 46.7943 66.0064 46.8433 65.9945C46.9253 65.9688 47.2819 65.8325 47.3567 65.8751C47.3533 65.8732 47.0859 65.8942 47.3021 65.8819C47.3532 65.8789 47.404 65.8745 47.4552 65.8727C47.5587 65.8689 47.6618 65.8712 47.7652 65.8759C48.0455 65.8743 48.3138 65.7749 48.512 65.5994C48.7102 65.4239 48.8223 65.1862 48.8242 64.938C48.8182 64.6909 48.7047 64.4554 48.5074 64.2807C48.3101 64.1059 48.0442 64.0054 47.7652 64.0001Z" fill="#3F3D56"/>
<path d="M62.7652 64.0001C61.8456 63.995 60.9446 64.2299 60.1747 64.6752C59.4047 65.1206 58.7998 65.7569 58.4353 66.5047C58.0276 67.2365 57.9017 68.0666 58.077 68.8678C58.2522 69.6691 58.719 70.3974 59.4058 70.9415C60.0515 71.428 60.8258 71.7616 61.6566 71.9111C62.4873 72.0606 63.3473 72.0211 64.1562 71.7963C64.9833 71.5404 65.7006 71.0637 66.2093 70.4319C66.718 69.8 66.993 69.044 66.9966 68.268C67.0335 67.4071 66.7702 66.5569 66.2424 65.8332C65.7146 65.1095 64.9479 64.5473 64.0466 64.2231C63.7758 64.158 63.4869 64.1902 63.2429 64.313C62.9989 64.4357 62.8195 64.6388 62.744 64.8782C62.6772 65.1178 62.7166 65.371 62.8542 65.5856C62.9918 65.8002 63.217 65.9599 63.4836 66.0319C63.6681 66.0951 63.315 65.9516 63.4873 66.0347C63.5582 66.0689 63.6304 66.0998 63.6999 66.1363C63.7591 66.1674 63.8157 66.2013 63.8733 66.2346C64.0709 66.3488 63.7767 66.1507 63.9031 66.2534C64.0127 66.3425 64.1213 66.4294 64.2208 66.5277C64.2585 66.5649 64.406 66.6682 64.2914 66.596C64.2036 66.5407 64.2576 66.5537 64.2914 66.5981C64.317 66.6318 64.3441 66.6645 64.3695 66.6984C64.452 66.8091 64.5271 66.924 64.5942 67.0425C64.6098 67.07 64.624 67.0981 64.6398 67.1254C64.6695 67.1765 64.7125 67.1899 64.6428 67.1258C64.5762 67.0646 64.6186 67.0688 64.6424 67.1277C64.6581 67.1664 64.6752 67.2047 64.6904 67.2435C64.7401 67.37 64.7817 67.4989 64.8153 67.6295C64.8308 67.6899 64.8433 67.7506 64.8566 67.8114C64.9039 68.0267 64.8497 67.6775 64.8611 67.8374C64.8707 67.971 64.8818 68.1032 64.8792 68.2373C64.878 68.2987 64.875 68.36 64.8702 68.4212C64.8677 68.4517 64.8639 68.4822 64.8616 68.5127C64.8506 68.6599 64.8503 68.459 64.8735 68.4452C64.8251 68.5701 64.793 68.6996 64.7778 68.831C64.7588 68.8893 64.7363 68.9463 64.7152 69.004C64.6416 69.2052 64.7844 68.8943 64.7059 69.0319C64.6412 69.15 64.569 69.2648 64.4895 69.3756C64.455 69.422 64.3249 69.5268 64.4313 69.4539C64.5468 69.3747 64.3708 69.511 64.3332 69.5461C64.285 69.5912 64.2349 69.6346 64.183 69.6766C64.1498 69.7053 64.1148 69.7323 64.078 69.7574C64.0713 69.7544 64.2549 69.6488 64.1559 69.7047C64.0301 69.7758 63.911 69.8518 63.7784 69.9137C63.7629 69.9209 63.5934 69.9905 63.5941 69.9929C63.5868 69.9676 63.812 69.9227 63.6574 69.9669C63.6249 69.9762 63.5931 69.9875 63.5607 69.9971C63.4199 70.0391 63.2762 70.073 63.1305 70.0986C63.0972 70.1045 63.0619 70.1075 63.029 70.115C62.9196 70.1401 63.1336 70.1003 63.1401 70.1036C63.0591 70.1005 62.9781 70.1068 62.8991 70.1225C62.7488 70.1301 62.5982 70.1301 62.448 70.1224C62.4132 70.1207 62.3785 70.1176 62.3438 70.1158C62.2631 70.1117 62.2039 70.0602 62.3112 70.1161C62.3941 70.1592 62.3872 70.1277 62.3138 70.1157C62.2795 70.1101 62.245 70.1054 62.2107 70.0997C62.0619 70.075 61.9149 70.0431 61.7701 70.0041C61.6923 69.9831 61.6159 69.9586 61.5391 69.9348C61.5056 69.9262 61.473 69.9151 61.4417 69.9016C61.4412 69.8939 61.6397 69.9856 61.5349 69.9356C61.4026 69.8725 61.2658 69.8195 61.1367 69.7505C61.0677 69.7137 61.0015 69.6737 60.9345 69.6342C60.905 69.6185 60.877 69.6007 60.8507 69.5811C60.8529 69.5732 61.0149 69.7061 60.9299 69.6343C60.8223 69.5436 60.7073 69.4623 60.6055 69.3657C60.5822 69.3436 60.5601 69.3204 60.5369 69.2983L60.5145 69.2755C60.457 69.2134 60.456 69.2137 60.5113 69.2764C60.5674 69.2911 60.5648 69.3456 60.5116 69.2748C60.4926 69.2495 60.4724 69.225 60.4535 69.1997C60.3675 69.0912 60.2942 68.9752 60.2346 68.8535C60.2398 68.85 60.3263 69.0792 60.2601 68.9062C60.2476 68.8735 60.2336 68.8414 60.2213 68.8086C60.197 68.7436 60.1756 68.6779 60.1571 68.6115C60.1388 68.5457 60.1294 68.4778 60.1109 68.4123C60.0798 68.3018 60.1291 68.4994 60.1235 68.4945C60.1058 68.4791 60.1133 68.3833 60.112 68.3603C60.1035 68.2132 60.1225 68.0703 60.1254 67.924C60.1277 67.8107 60.1148 68.0123 60.1122 68.0064C60.1128 67.9725 60.1196 67.9389 60.1323 67.9068C60.1514 67.8297 60.1693 67.7526 60.1928 67.6763C60.2196 67.5889 60.2505 67.5027 60.2855 67.4174C60.2986 67.3855 60.3146 67.3541 60.3267 67.322C60.3713 67.2042 60.2385 67.4642 60.3117 67.358C60.4125 67.2119 60.4875 67.0538 60.5945 66.9095C60.6198 66.8753 60.774 66.6847 60.6922 66.7809C60.6107 66.8767 60.7759 66.6951 60.8071 66.6643C60.937 66.5362 61.0898 66.431 61.2243 66.3083C61.3039 66.2357 61.1687 66.3441 61.1607 66.3491C61.2024 66.3228 61.2432 66.2954 61.2853 66.2697C61.3589 66.2248 61.4342 66.1824 61.5113 66.1424C61.5982 66.0973 61.6964 66.0637 61.7806 66.016C61.8801 65.9596 61.7045 66.0407 61.7014 66.0424C61.7468 66.0224 61.7943 66.0064 61.8433 65.9945C61.9253 65.9688 62.2819 65.8325 62.3567 65.8751C62.3533 65.8732 62.0859 65.8942 62.3021 65.8819C62.3532 65.8789 62.404 65.8745 62.4552 65.8727C62.5587 65.8689 62.6618 65.8712 62.7652 65.8759C63.0455 65.8743 63.3138 65.7749 63.512 65.5994C63.7102 65.4239 63.8223 65.1862 63.8242 64.938C63.8182 64.6909 63.7047 64.4554 63.5074 64.2807C63.3101 64.1059 63.0442 64.0054 62.7652 64.0001Z" fill="#3F3D56"/>
<path d="M32.0005 114.232L32.9527 147.286L33.905 180.341C34.0252 184.512 33.3754 190.201 38.0406 192.644C39.9868 193.664 42.3136 193.887 44.5192 193.943C47.447 194.016 50.3843 193.962 53.3132 193.965L89.7959 194C94.5893 194.005 99.8541 193.878 103.288 190.377C106.155 187.454 106.967 183.403 107.255 179.622C107.634 174.633 107.452 169.581 107.501 164.582L107.665 147.97L107.829 131.357C107.879 126.311 108.142 121.223 107.898 116.179C107.712 112.331 106.994 108.222 104.149 105.198C100.908 101.753 95.7837 101.288 91.1097 101.152C79.0216 100.801 66.9312 100.505 54.8422 100.182C52.061 100.107 49.2718 99.9718 46.4889 100.005C44.0142 99.9617 41.5496 100.304 39.2026 101.017C35.294 102.344 32.2407 105.528 32.3766 109.476C32.3854 110.303 32.5867 111.119 32.9673 111.87C33.3479 112.622 33.8992 113.292 34.5851 113.837C35.6283 114.637 37.1463 113.274 36.0952 112.467C33.2461 110.282 34.6259 106.186 37.1164 104.246C40.7249 101.436 46.3819 101.892 50.7821 102.01L85.0281 102.926C87.684 102.997 90.3472 103.021 92.9999 103.162C95.3679 103.289 97.8414 103.568 99.9609 104.602C103.626 106.39 105.056 110.059 105.538 113.607C106.144 118.072 105.779 122.679 105.735 127.164L105.579 142.97L105.27 174.259C105.233 178.065 105.298 181.993 103.886 185.632C103.279 187.32 102.168 188.822 100.675 189.972C98.8017 191.205 96.5625 191.899 94.2484 191.964C91.649 192.155 89.0198 192.063 86.4145 192.06L77.5163 192.051L60.4318 192.035L51.5336 192.026C48.9335 192.024 46.3145 192.106 43.7177 191.977C41.7246 191.877 39.5005 191.565 38.0321 190.221C36.3871 188.715 36.2345 186.389 36.159 184.391C35.3727 163.592 34.9583 142.776 34.359 121.971L34.136 114.231C34.1002 112.988 31.9645 112.983 32.0004 114.231L32.0005 114.232Z" fill="#3F3D56"/>
<path d="M168 114.232L168.953 147.286L169.905 180.341C170.025 184.512 169.375 190.201 174.041 192.644C175.987 193.664 178.314 193.887 180.519 193.943C183.447 194.016 186.384 193.962 189.313 193.965L225.796 194C230.589 194.005 235.854 193.878 239.288 190.377C242.155 187.454 242.967 183.403 243.255 179.622C243.634 174.633 243.452 169.581 243.501 164.582L243.665 147.97L243.829 131.357C243.879 126.311 244.142 121.223 243.898 116.179C243.712 112.331 242.994 108.222 240.149 105.198C236.908 101.753 231.784 101.288 227.11 101.152C215.022 100.801 202.931 100.505 190.842 100.182C188.061 100.107 185.272 99.9718 182.489 100.005C180.014 99.9617 177.55 100.304 175.203 101.017C171.294 102.344 168.241 105.528 168.377 109.476C168.385 110.303 168.587 111.119 168.967 111.87C169.348 112.622 169.899 113.292 170.585 113.837C171.628 114.637 173.146 113.274 172.095 112.467C169.246 110.282 170.626 106.186 173.116 104.246C176.725 101.436 182.382 101.892 186.782 102.01L221.028 102.926C223.684 102.997 226.347 103.021 229 103.162C231.368 103.289 233.841 103.568 235.961 104.602C239.626 106.39 241.056 110.059 241.538 113.607C242.144 118.072 241.779 122.679 241.735 127.164L241.579 142.97L241.27 174.259C241.233 178.065 241.298 181.993 239.886 185.632C239.279 187.32 238.168 188.822 236.675 189.972C234.802 191.205 232.563 191.899 230.248 191.964C227.649 192.155 225.02 192.063 222.414 192.06L213.516 192.051L196.432 192.035L187.534 192.026C184.933 192.024 182.315 192.106 179.718 191.977C177.725 191.877 175.501 191.565 174.032 190.221C172.387 188.715 172.234 186.389 172.159 184.391C171.373 163.592 170.958 142.776 170.359 121.971L170.136 114.231C170.1 112.988 167.964 112.983 168 114.231L168 114.232Z" fill="#3F3D56"/>
<path d="M68.996 201.513C68.2575 200.869 67.3486 200.408 66.3567 200.174C65.3647 199.941 64.3231 199.942 63.3319 200.178C62.347 200.423 61.4342 200.862 60.6593 201.465C59.8845 202.068 59.2668 202.818 58.8507 203.663C56.8549 207.514 58.6429 212.002 61.4007 215.146C63.9632 218.068 68.1265 219.993 72.1821 218.459C74.0298 217.742 75.5824 216.517 76.6206 214.958C77.6589 213.399 78.1305 211.583 77.9689 209.768C77.4576 205.493 73.6223 202.03 69.1185 200.986C67.8008 200.68 67.2387 202.526 68.5569 202.831C70.1225 203.175 71.5718 203.86 72.7786 204.826C73.9855 205.793 74.9135 207.012 75.4818 208.377C75.9804 209.713 76.0019 211.157 75.5434 212.504C75.0848 213.852 74.1694 215.034 72.927 215.884C66.6321 220.263 59.4319 211.891 60.1377 206.413C60.2131 205.604 60.4926 204.823 60.9548 204.128C61.4169 203.433 62.0493 202.844 62.8029 202.406C63.5367 202.015 64.3901 201.849 65.2366 201.931C66.0831 202.014 66.8775 202.342 67.5022 202.866C67.7025 203.036 67.9676 203.128 68.2417 203.124C68.5157 203.12 68.7773 203.019 68.9711 202.844C69.1649 202.668 69.2758 202.431 69.2805 202.183C69.2851 201.934 69.1831 201.694 68.996 201.513L68.996 201.513Z" fill="#3F3D56"/>
<path d="M200.104 134.149C197.6 133.384 194.692 132.624 192.101 133.521C189.656 134.367 188.31 136.438 188.045 138.686C187.75 141.193 188.95 143.584 190.222 145.755C191.752 148.366 193.33 150.955 194.885 153.555L200.264 162.545C200.387 162.721 200.57 162.857 200.786 162.933C201.003 163.009 201.241 163.021 201.466 162.967C201.691 162.913 201.89 162.796 202.033 162.633C202.177 162.47 202.258 162.271 202.264 162.064C201.96 159.05 202.499 156.015 203.832 153.23C205.208 150.414 207.455 148.037 209.053 145.33C210.524 142.838 211.505 139.979 210.725 137.17C210.095 134.899 208.235 132.688 205.555 132.159C204.2 131.855 202.768 131.99 201.515 132.539C200.263 133.089 199.272 134.017 198.721 135.158C198.215 136.299 200.289 136.795 200.79 135.665C201.504 134.055 204.003 133.561 205.668 134.178C207.838 134.98 208.867 137.283 208.865 139.241C208.861 141.918 207.317 144.364 205.751 146.562C204.169 148.782 202.506 150.93 201.454 153.405C200.294 156.168 199.838 159.125 200.118 162.064L202.117 161.583C198.625 155.745 194.94 149.966 191.643 144.04C190.375 141.76 189.235 138.686 191.178 136.413C193.171 134.082 196.975 135.205 199.533 135.987C200.842 136.387 201.404 134.546 200.104 134.149L200.104 134.149Z" fill="#3F3D56"/>
<path d="M63.1269 206.832L66.2184 212.521C66.3255 212.686 66.4808 212.819 66.6654 212.902C66.85 212.986 67.0561 213.017 67.2589 212.992C67.4617 212.966 67.6524 212.886 67.8083 212.76C67.9641 212.635 68.0782 212.469 68.137 212.283C68.9424 208.345 70.8719 204.692 73.7152 201.723C74.6249 200.778 73.1442 199.366 72.2307 200.315C69.1285 203.526 67.0127 207.482 66.1125 211.754L68.0312 211.516L64.9398 205.827C64.3204 204.687 62.5081 205.694 63.1269 206.832Z" fill="#3F3D56"/>
<path d="M99 180.958L74.2102 200.834C74.0705 200.946 73.8887 201.006 73.7024 201C73.516 200.994 73.3393 200.923 73.2087 200.802C73.078 200.681 73.0034 200.52 73.0001 200.351C72.9969 200.181 73.0652 200.017 73.1912 199.893L96.2889 177L99 180.958Z" fill="#3F3D56"/>
<path d="M132 423H142.163L147 389H132V423Z" fill="#FFB6B6"/>
<path d="M127 438H134.166L135.445 432.072L138.721 438H157.727C158.638 438 159.526 437.745 160.259 437.272C160.993 436.799 161.535 436.133 161.806 435.371C162.078 434.609 162.064 433.791 161.766 433.036C161.469 432.282 160.905 431.63 160.155 431.176L144.977 421.993V416L129.013 416.835L127 438Z" fill="#334D5C"/>
<path d="M216 423H226.163L231 389H216V423Z" fill="#FFB6B6"/>
<path d="M211 438H218.166L219.445 432.072L222.721 438H241.727C242.638 438 243.526 437.745 244.259 437.272C244.993 436.799 245.535 436.133 245.806 435.371C246.078 434.609 246.064 433.791 245.766 433.036C245.469 432.282 244.905 431.63 244.155 431.176L228.977 421.993V416L213.013 416.835L211 438Z" fill="#334D5C"/>
<path d="M188.476 241.993L138.691 237C138.691 237 116.564 262.962 124.862 285.43V310.448L130.947 408.251L146.159 409L150.584 364.565L154.733 346.84L158.227 279.313L176.03 298.66L177.69 306.15L183.221 309.644L193.455 322.337L214.475 400.263L233 400.512C233 400.512 223.049 319.63 221.943 319.63C220.837 319.63 193.178 265.209 193.178 265.209V262.329L192.072 256.721C192.072 256.721 194.838 254.724 193.731 253.726C192.625 252.727 191.519 249.732 191.519 249.732L188.476 241.993Z" fill="#334D5C"/>
<path d="M170.213 172.498L180.17 182.459L194 186.941L186.255 227.78L188.824 239.523L192.617 252.432C178.002 259.711 160.641 249.659 144.692 245.194L129 251.436L129.83 234.254L130.255 190.963C130.272 189.3 130.667 187.658 131.418 186.139C132.169 184.62 133.258 183.256 134.619 182.131C135.98 181.007 137.582 180.146 139.328 179.603C141.073 179.06 142.924 178.845 144.766 178.972L155.277 172L170.213 172.498Z" fill="#20BDB5"/>
<path d="M80.0288 190.655C80.1058 191.398 80.3581 192.117 80.7681 192.76C81.1781 193.403 81.7356 193.955 82.4016 194.378C83.0675 194.8 83.8256 195.083 84.6225 195.205C85.4193 195.328 86.2356 195.287 87.0137 195.087L98.1977 210L102 201.251L90.7966 188.43C90.3454 187.245 89.4392 186.253 88.2498 185.644C87.0604 185.035 85.6703 184.849 84.3431 185.124C83.0158 185.398 81.8435 186.113 81.0484 187.132C80.2532 188.152 79.8905 189.405 80.0288 190.655Z" fill="#FFB8B8"/>
<path d="M139.352 179.001C139.352 179.001 124.584 178.409 126.238 204.96L119.956 216.624L107.32 205.955L107.263 202.559L96.5774 191.753L88 200.332L93.7095 208.229L94.81 212.64L98.2873 214.562L107.36 227.112L111.557 230.849C111.557 230.849 116.881 235.649 122.903 234.926C124.51 234.737 126.074 234.321 127.537 233.693C130.402 232.459 133.232 230.247 135.612 226.502C140.598 218.769 145.069 210.772 149 202.556L139.352 179.001Z" fill="#20BDB5"/>
<path d="M204.22 149.633C203.991 150.327 203.94 151.057 204.071 151.77C204.202 152.484 204.513 153.164 204.98 153.762C205.447 154.36 206.06 154.862 206.775 155.233C207.491 155.604 208.291 155.835 209.121 155.908L213.776 173L221 166.36L215.472 151.147C215.522 149.932 215.056 148.742 214.163 147.805C213.269 146.867 212.009 146.246 210.622 146.059C209.235 145.872 207.818 146.133 206.638 146.791C205.458 147.45 204.597 148.461 204.22 149.633V149.633Z" fill="#FFB8B8"/>
<path d="M173 184.577C173 184.577 180.783 173.087 203.981 189.524L218.12 191.451L215.544 175.807L212.49 173.821L208.691 159.57L221.32 158L225.28 166.829L228.669 170.183L228.455 173.908L234.748 187.939L235.78 193.246C235.78 193.246 237.142 200.012 233.092 204.146C232.014 205.251 230.755 206.194 229.359 206.94C226.624 208.398 223.019 209.27 218.275 208.925C208.437 208.267 198.651 207.069 188.969 205.337L173 184.577Z" fill="#20BDB5"/>
<path d="M171.812 168.551C181.094 163.983 184.505 153.507 179.431 145.151C174.357 136.795 162.72 133.724 153.438 138.291C144.156 142.859 140.745 153.336 145.819 161.692C150.893 170.048 162.53 173.119 171.812 168.551Z" fill="#FFB6B6"/>
<path d="M187.411 147.322C187.354 147.342 187.304 147.361 187.248 147.38C187.139 147.424 187.028 147.46 186.914 147.49C186.189 147.73 185.433 147.886 184.665 147.955C184.337 147.986 184.008 148.001 183.679 148C183.256 148 182.834 147.974 182.415 147.922C181.95 147.869 181.49 147.783 181.039 147.664C180.825 147.612 180.614 147.549 180.407 147.477C178.998 147.018 177.725 146.268 176.688 145.286C175.652 144.304 174.88 143.116 174.433 141.817V141.81C174.385 141.683 174.345 141.554 174.312 141.423C174.103 140.696 173.998 139.947 174 139.196V139.183C174 137.351 174.633 135.565 175.809 134.078C176.519 133.168 177.336 133.017 176.881 131.974C175.429 128.645 181.416 125.94 184.942 127.41C185.069 127.4 185.197 127.395 185.325 127.397C187.702 127.397 188.575 130.592 189.987 132.393L189.946 132.405C189.586 132.519 189.275 132.731 189.055 133.014C188.836 133.296 188.718 133.634 188.72 133.979C188.722 134.325 188.842 134.662 189.064 134.942C189.287 135.223 189.6 135.433 189.96 135.544C190.903 135.826 191.855 136.075 192.818 136.292C195.985 139.711 192.316 149.686 187.411 147.322Z" fill="#334D5C"/>
<path d="M186.028 156.372C184.966 159.989 183.013 163.516 179.784 165.861C176.548 168.206 161.344 173.745 160.075 168.971C160.923 172.305 160.403 173.578 159.02 174.766C158.785 174.477 158.535 174.201 158.279 173.931C157.333 172.944 156.198 172.119 154.928 171.496C154.89 173.509 155.045 175.521 155.392 177.509C154.822 177.981 154.28 178.478 153.767 179C151.329 172.395 145.967 164.479 149.882 158.479C151.436 156.098 150.146 155.769 148.777 155.492C146.386 155.009 145.092 146.157 144.529 144.005C143.83 141.306 143.559 138.203 145.42 135.993C147.28 133.783 151.97 133.699 152.911 136.34L154.893 133.924C157.459 128.868 164.23 129.896 170.353 130.564C176.476 131.226 181.872 135.119 184.617 140.098C187.354 145.077 187.603 150.995 186.028 156.372Z" fill="#334D5C"/>
<path d="M176.015 132.944C175.87 136.047 176.768 139.12 178.595 141.779C180.423 144.439 183.1 146.568 186.295 147.902C187.592 148.421 188.728 146.733 187.421 146.21C184.567 145.046 182.171 143.163 180.537 140.801C178.904 138.439 178.107 135.704 178.247 132.944C178.325 131.683 176.093 131.687 176.015 132.944Z" fill="#FF6584"/>
<path d="M91.7396 426.149C91.365 426.165 90.9941 426.075 90.6772 425.892C90.3603 425.708 90.1127 425.44 89.968 425.124C89.8233 424.808 89.7885 424.459 89.8682 424.124C89.948 423.789 90.1385 423.485 90.4139 423.252L90.5392 422.797C90.5227 422.76 90.5062 422.724 90.4895 422.687C88.8054 419.018 78.0593 429.247 77.5948 432.696C77.3901 434.22 77.4765 435.765 77.8499 437.263C74.3691 430.324 72.5615 422.783 72.5499 415.15C72.5492 413.235 72.6656 411.321 72.8987 409.417C73.0914 407.857 73.3586 406.308 73.7005 404.769C75.5662 396.423 79.5718 388.6 85.3885 381.943C88.715 382.113 91.6304 381.65 91.9119 375.759C91.962 374.711 92.8126 373.803 93 372.771C92.6824 372.809 92.3596 372.833 92.0421 372.852C91.9431 372.857 91.839 372.861 91.7401 372.866L91.7028 372.868C91.3538 372.882 91.0076 372.804 90.7061 372.643C90.4046 372.481 90.1605 372.244 90.0032 371.959C89.8459 371.674 89.7822 371.353 89.8196 371.036C89.8571 370.718 89.9942 370.418 90.2143 370.17C90.3515 370.015 90.4887 369.861 90.626 369.707C90.8342 369.469 91.0477 369.236 91.2559 368.998C91.2799 368.976 91.3025 368.952 91.3236 368.927C91.5631 368.656 91.8026 368.389 92.0421 368.118C91.6049 367.498 91.0169 366.979 90.324 366.601C87.9239 365.316 84.6127 366.206 82.8791 368.19C81.1402 370.173 80.8122 372.957 81.4161 375.435C82.01 377.544 82.9924 379.546 84.3212 381.353C84.191 381.506 84.0557 381.653 83.9255 381.805C81.5463 384.601 79.4726 387.603 77.7341 390.768C78.226 387.258 72.2116 374.579 69.8857 371.894C67.0919 368.668 61.3629 370.076 60.8707 374.165C60.8659 374.205 60.8613 374.244 60.8567 374.284C61.2022 374.462 61.5404 374.651 61.8713 374.851C62.2869 375.105 62.609 375.467 62.7953 375.891C62.9816 376.315 63.0234 376.781 62.9153 377.227C62.8072 377.673 62.5541 378.078 62.1893 378.391C61.8245 378.703 61.365 378.907 60.8709 378.977L60.8203 378.984C56.1959 385.018 71.0206 400.722 74.7313 397.196C72.9848 401.719 71.8892 406.43 71.4722 411.211C71.2361 414.032 71.2501 416.865 71.5139 419.684L71.4982 419.584C70.6738 413.445 56.5292 404.317 52.3988 405.078C50.0194 405.516 47.6757 405.416 48.037 407.609C48.0428 407.644 48.0487 407.679 48.0546 407.714C48.6957 407.953 49.3199 408.228 49.9236 408.537C50.2691 408.715 50.6073 408.904 50.9382 409.104C51.3538 409.358 51.6759 409.721 51.8622 410.145C52.0485 410.569 52.0904 411.034 51.9822 411.48C51.8741 411.926 51.621 412.332 51.2562 412.644C50.8914 412.957 50.4319 413.161 49.9378 413.23L49.8871 413.238C49.8507 413.242 49.8195 413.247 49.7831 413.252C47.6781 419.87 63.2886 430.552 72.7789 427.153H72.7842C73.7247 430.888 75.0874 434.523 76.8503 438H91.3756C91.4277 437.853 91.4745 437.7 91.5214 437.553C90.1769 437.63 88.8271 437.557 87.5022 437.334C88.5799 436.126 89.6576 434.908 90.7353 433.699C90.7593 433.677 90.7819 433.653 90.8029 433.628C91.3496 433.009 91.9014 432.396 92.4481 431.777L92.4484 431.777C92.4775 429.881 92.2395 427.989 91.74 426.149L91.7396 426.149ZM75.1062 396.249L75.1138 396.239L75.1062 396.258V396.249ZM71.8887 422.752L71.7638 422.496C71.769 422.31 71.769 422.125 71.7638 421.934C71.7638 421.882 71.7534 421.83 71.7534 421.777C71.8002 422.105 71.8419 422.434 71.8939 422.762L71.8887 422.752Z" fill="#20BDB5"/>
<path d="M257 438H48V439H257V438Z" fill="#CCCCCC"/>
</svg>
