<svg width="32" height="22" viewBox="0 0 32 22" fill="none" xmlns="http://www.w3.org/2000/svg">
<path d="M30.1466 0L12.2862 0.0101202C11.2623 0.00843355 10.4291 0.841662 10.4308 1.86717V2.71895C10.0513 2.55534 9.5807 2.44065 8.98023 2.44065C8.22965 2.44065 7.60726 2.60932 7.53811 2.63125C7.39305 2.67173 7.26149 2.74257 7.14848 2.84208L0.340973 8.80624C0.118329 9.00358 -0.00648672 9.28864 0.000260063 9.58549L0.0592945 19.4038C0.072788 19.9266 0.673252 20.3534 1.19781 20.377C1.2248 20.377 3.76328 20.4832 6.00659 20.4832C7.3745 20.4832 8.33929 20.4478 8.95493 20.3702C10.7496 20.1442 11.5339 19.6146 11.8594 19.2773C12.1968 19.031 12.497 18.7881 12.8107 18.5452C12.5493 19.5033 12.9861 20.5473 13.9037 21.0112C14.2006 21.163 14.5345 21.2439 14.8651 21.2439C15.4538 21.2439 15.9935 20.9994 16.3882 20.5946C16.5822 20.8577 16.8284 21.0871 17.1388 21.2473C17.4373 21.3941 17.7696 21.475 18.1019 21.475C18.9081 21.475 19.6368 21.0247 20.0011 20.3061L21.4129 17.5265C21.6709 17.0171 21.7249 16.4385 21.5461 15.8988C21.4888 15.7234 21.3977 15.5598 21.2965 15.408L30.1331 15.413C31.1569 15.413 31.9918 14.5798 31.9935 13.5577L32.0003 1.87898C32.002 0.851782 31.1704 0 30.1466 0ZM16.9887 16.6848L15.5803 19.4678C15.3897 19.8524 14.8938 20.016 14.5075 19.8221C14.1145 19.6213 13.9577 19.1389 14.155 18.7476L15.3138 16.4655C15.3138 16.4655 15.6933 15.5395 16.2988 15.5294C16.4169 15.5328 16.5316 15.5581 16.6395 15.6137C16.8284 15.7116 16.9701 15.8718 17.0359 16.0759C17.1034 16.28 17.0899 16.4942 16.9887 16.6848ZM14.769 14.2374L13.4955 15.4046H13.5073C12.7095 16.0961 11.7599 16.8636 10.591 17.7272C10.5033 17.7913 10.4966 17.7845 10.4342 17.8722C10.4308 17.8756 10.0445 18.2197 8.71205 18.385C8.34772 18.4305 7.58534 18.4238 6.00827 18.4238C4.63699 18.4238 2.93005 18.444 1.99731 18.412L2.01249 10.0021L8.27688 4.51191C8.44555 4.47987 8.70193 4.44276 8.98023 4.44276C9.38841 4.44276 9.67009 4.51529 9.82189 4.6654V11.6078C9.82189 11.9604 10.0074 12.2842 10.311 12.4664C10.3465 12.4866 10.3869 12.4832 10.424 12.5001V12.5743L10.5168 12.5271C10.7749 12.6131 11.0532 12.6249 11.2994 12.4883C12.8563 11.645 15.8063 10.304 17.0916 10.304C17.1489 10.304 17.1978 10.304 17.2316 10.3108C17.2366 10.3226 17.2417 10.3293 17.2484 10.3394C17.2754 10.4727 17.4036 11.6298 14.769 14.2374ZM20.2221 16.9176L18.8137 19.7006C18.6214 20.0852 18.1238 20.2471 17.7393 20.0531C17.3479 19.8558 17.1928 19.3717 17.3901 18.9804L18.8002 16.1973C18.9368 15.9275 19.2084 15.7571 19.512 15.7571C19.6385 15.7571 19.7599 15.7892 19.8746 15.8465C20.0669 15.9443 20.2069 16.1079 20.271 16.307C20.3384 16.5128 20.3233 16.727 20.2221 16.9176ZM30.7589 13.5526C30.7572 13.8984 30.4806 14.1716 30.1398 14.1716L17.5301 14.1682C18.5607 12.8965 19.1527 11.7563 19.2505 10.7679C19.3231 9.98524 19.092 9.48598 18.9216 9.23804C18.7108 8.83998 18.2149 8.29854 17.0916 8.29854C15.6224 8.29854 13.3319 9.25996 11.8223 9.9785V7.20725L30.7605 7.20219L30.7589 13.5526ZM30.7605 3.53194L11.6671 3.52351V1.8638C11.6671 1.5214 11.9438 1.24478 12.2845 1.24478L30.1466 1.23129C30.4839 1.23129 30.7656 1.53152 30.7656 1.87223L30.7605 3.53194Z" fill="white"/>
</svg>
