<svg width="450" height="530" viewBox="0 0 450 530" fill="none" xmlns="http://www.w3.org/2000/svg">
<path d="M88.4963 197.006C113.289 124.378 132.781 84.1275 213.381 16.1748C287.252 78.1049 316.893 114.771 342.748 184.63C360.37 262.116 348.982 304.525 313.446 379.424L256.213 380.158L263.776 308.674L174.747 309.816L186.32 385.612L122.728 386.428C82.3901 307.567 74.932 266.099 88.4963 197.006Z" stroke="white" stroke-width="24"/>
<path d="M84.3892 284.484C1.03916 346.369 0.803632 379.975 31.992 439.174C46.568 398.682 61.7493 378.833 116.774 354.808" stroke="white" stroke-width="24"/>
<path d="M356.476 261.514C446.696 309.859 450.759 341.52 421.268 401.59C400.004 363.244 386.439 342.934 323.477 334.752" stroke="white" stroke-width="24"/>
<path d="M186.223 378.019L186.749 419.022L256.7 418.124L256.174 377.121" stroke="white" stroke-width="24"/>
<path d="M150.986 440.745L151.513 481.749" stroke="white" stroke-width="24"/>
<path d="M221.288 467.183L222.048 526.41" stroke="white" stroke-width="24"/>
<path d="M290.889 438.95L291.435 481.472" stroke="white" stroke-width="24"/>
<path d="M171.049 186.833C173.716 151.375 204.902 152.388 223.575 149.706C259.828 155.969 270.377 168.036 268.557 185.582C266.737 203.129 246.02 220.202 224.51 222.601C203 225 168.382 222.292 171.049 186.833Z" stroke="white" stroke-width="24"/>
</svg>
