<svg width="30" height="30" viewBox="0 0 30 30" fill="none" xmlns="http://www.w3.org/2000/svg">
<path d="M17.1471 0.768609C16.5572 0.273752 15.7921 0 14.9989 0C14.2058 0 13.4407 0.273752 12.8507 0.768609L1.065 10.6551C0.729906 10.9364 0.461923 11.2804 0.278448 11.6647C0.0949717 12.0489 0.000103195 12.4649 0 12.8857V26.9992C0 27.7951 0.338647 28.5583 0.941443 29.1211C1.54424 29.6838 2.3618 30 3.21429 30H7.5C8.35248 30 9.17005 29.6838 9.77284 29.1211C10.3756 28.5583 10.7143 27.7951 10.7143 26.9992V18.9972C10.7143 18.7319 10.8272 18.4775 11.0281 18.2899C11.229 18.1023 11.5016 17.997 11.7857 17.997H18.2143C18.4984 17.997 18.771 18.1023 18.9719 18.2899C19.1728 18.4775 19.2857 18.7319 19.2857 18.9972V26.9992C19.2857 27.7951 19.6244 28.5583 20.2272 29.1211C20.83 29.6838 21.6475 30 22.5 30H26.7857C27.6382 30 28.4558 29.6838 29.0586 29.1211C29.6614 28.5583 30 27.7951 30 26.9992V12.8857C29.9999 12.4649 29.905 12.0489 29.7216 11.6647C29.5381 11.2804 29.2701 10.9364 28.935 10.6551L17.1493 0.768609H17.1471Z" fill="white"/>
</svg>
