<svg width="23" height="26" viewBox="0 0 23 26" fill="none" xmlns="http://www.w3.org/2000/svg">
<path fill-rule="evenodd" clip-rule="evenodd" d="M19.9916 17.6765C20.4859 18.4589 21.0808 19.1696 21.7604 19.7895C21.8355 19.8571 21.8958 19.9403 21.9371 20.0335C21.9784 20.1268 21.9998 20.228 22 20.3304V21.3111C22 21.5024 21.9257 21.6858 21.7936 21.821C21.6614 21.9563 21.4822 22.0323 21.2953 22.0323H1.7047C1.5178 22.0323 1.33856 21.9563 1.2064 21.821C1.07424 21.6858 1 21.5024 1 21.3111V20.3304C1.00013 20.228 1.02156 20.1268 1.06287 20.0335C1.10418 19.9403 1.16443 19.8571 1.2396 19.7895C1.9092 19.1677 2.49458 18.4571 2.9802 17.6765C3.51984 16.5966 3.84328 15.4173 3.93154 14.2078V10.6453C3.92782 8.76001 4.5919 6.93718 5.80077 5.51446C7.00963 4.09174 8.68138 3.16555 10.5064 2.90743V1.96273C10.5064 1.7074 10.6055 1.46252 10.7819 1.28198C10.9583 1.10143 11.1976 1 11.4471 1C11.6966 1 11.9359 1.10143 12.1124 1.28198C12.2888 1.46252 12.3879 1.7074 12.3879 1.96273V2.89301C14.2294 3.13377 15.9216 4.0544 17.1465 5.48191C18.3715 6.90942 19.0449 8.74556 19.0402 10.6453V14.2078C19.1285 15.4173 19.4519 16.5966 19.9916 17.6765ZM4.18523 18.4265C3.69871 19.2155 3.12143 19.9418 2.46577 20.59H20.5412C19.8856 19.9418 19.3083 19.2155 18.8218 18.4265C18.142 17.1223 17.7454 15.6833 17.659 14.2078V10.6453C17.687 9.80019 17.5484 8.95791 17.2517 8.16869C16.9549 7.37946 16.506 6.65941 15.9316 6.05142C15.3573 5.44343 14.6693 4.95994 13.9085 4.62973C13.1478 4.29952 12.3299 4.12935 11.5035 4.12935C10.6772 4.12935 9.85925 4.29952 9.0985 4.62973C8.33775 4.95994 7.64972 5.44343 7.07537 6.05142C6.50101 6.65941 6.05209 7.37946 5.75533 8.16869C5.45856 8.95791 5.32003 9.80019 5.34798 10.6453V14.2078C5.26161 15.6833 4.86499 17.1223 4.18523 18.4265ZM12.5477 24.5175C12.2149 24.8184 11.7889 24.9892 11.345 24.9997C10.889 25.0064 10.446 24.8434 10.0986 24.541C9.75122 24.2385 9.523 23.8172 9.45643 23.3555H13.1631C13.0984 23.805 12.8804 24.2166 12.5477 24.5175Z" fill="#334D5C"/>
<path d="M21.7604 19.7895L21.5919 19.9742L21.5932 19.9754L21.7604 19.7895ZM19.9916 17.6765L19.7679 17.7883L19.7735 17.7995L19.7802 17.8101L19.9916 17.6765ZM21.9371 20.0335L21.7085 20.1348L21.7085 20.1348L21.9371 20.0335ZM22 20.3304H22.25V20.33L22 20.3304ZM21.7936 21.821L21.9724 21.9958L21.7936 21.821ZM1.2064 21.821L1.38521 21.6463L1.3852 21.6463L1.2064 21.821ZM1 20.3304L0.75 20.33V20.3304H1ZM1.06287 20.0335L0.834296 19.9323H0.834295L1.06287 20.0335ZM1.2396 19.7895L1.40676 19.9754L1.40972 19.9727L1.2396 19.7895ZM2.9802 17.6765L3.19247 17.8086L3.19862 17.7987L3.20383 17.7883L2.9802 17.6765ZM3.93154 14.2078L4.18088 14.226L4.18154 14.2169V14.2078H3.93154ZM3.93154 10.6453H4.18154L4.18154 10.6449L3.93154 10.6453ZM5.80077 5.51446L5.99128 5.67634L5.80077 5.51446ZM10.5064 2.90743L10.5414 3.15497L10.7564 3.12456V2.90743H10.5064ZM10.7819 1.28198L10.9607 1.4567V1.4567L10.7819 1.28198ZM12.1124 1.28198L11.9335 1.4567V1.4567L12.1124 1.28198ZM12.3879 2.89301H12.1379V3.11245L12.3555 3.1409L12.3879 2.89301ZM17.1465 5.48191L17.3363 5.31911L17.1465 5.48191ZM19.0402 10.6453L18.7902 10.6447V10.6453H19.0402ZM19.0402 14.2078H18.7902V14.2169L18.7909 14.226L19.0402 14.2078ZM2.46577 20.59L2.29001 20.4122L1.85728 20.84H2.46577V20.59ZM4.18523 18.4265L4.39802 18.5578L4.40276 18.5501L4.40692 18.5421L4.18523 18.4265ZM20.5412 20.59V20.84H21.1497L20.717 20.4122L20.5412 20.59ZM18.8218 18.4265L18.6001 18.5421L18.6043 18.5501L18.609 18.5578L18.8218 18.4265ZM17.659 14.2078H17.409V14.2151L17.4095 14.2224L17.659 14.2078ZM17.659 10.6453L17.409 10.6371V10.6453H17.659ZM17.2517 8.16869L17.0177 8.25667V8.25667L17.2517 8.16869ZM15.9316 6.05142L16.1134 5.87974L15.9316 6.05142ZM9.0985 4.62973L9.19804 4.85906L9.0985 4.62973ZM7.07537 6.05142L6.89363 5.87974H6.89363L7.07537 6.05142ZM5.75533 8.16869L5.52132 8.0807L5.75533 8.16869ZM5.34798 10.6453H5.59812L5.59784 10.6371L5.34798 10.6453ZM5.34798 14.2078L5.59755 14.2224L5.59798 14.2151V14.2078H5.34798ZM11.345 24.9997L11.3487 25.2497L11.3509 25.2496L11.345 24.9997ZM12.5477 24.5175L12.38 24.3321L12.38 24.3321L12.5477 24.5175ZM10.0986 24.541L9.93446 24.7295H9.93446L10.0986 24.541ZM9.45643 23.3555V23.1055H9.1678L9.20899 23.3911L9.45643 23.3555ZM13.1631 23.3555L13.4106 23.3911L13.4517 23.1055H13.1631V23.3555ZM21.9289 19.6048C21.2659 19 20.6854 18.3065 20.2029 17.543L19.7802 17.8101C20.2864 18.6112 20.8957 19.3391 21.5919 19.9742L21.9289 19.6048ZM22.1657 19.9323C22.1102 19.8071 22.0291 19.6949 21.9275 19.6036L21.5932 19.9754C21.6419 20.0192 21.6814 20.0735 21.7085 20.1348L22.1657 19.9323ZM22.25 20.33C22.2498 20.193 22.2211 20.0574 22.1657 19.9323L21.7085 20.1348C21.7357 20.1961 21.7499 20.2629 21.75 20.3307L22.25 20.33ZM22.25 21.3111V20.3304H21.75V21.3111H22.25ZM21.9724 21.9958C22.1507 21.8132 22.25 21.5668 22.25 21.3111H21.75C21.75 21.4379 21.7007 21.5584 21.6148 21.6463L21.9724 21.9958ZM21.2953 22.2823C21.5504 22.2823 21.7938 22.1785 21.9724 21.9958L21.6148 21.6463C21.529 21.7341 21.414 21.7823 21.2953 21.7823V22.2823ZM1.7047 22.2823H21.2953V21.7823H1.7047V22.2823ZM1.0276 21.9958C1.20617 22.1785 1.44961 22.2823 1.7047 22.2823V21.7823C1.58599 21.7823 1.47095 21.7341 1.38521 21.6463L1.0276 21.9958ZM0.75 21.3111C0.75 21.5668 0.849216 21.8132 1.0276 21.9958L1.3852 21.6463C1.29927 21.5584 1.25 21.4379 1.25 21.3111H0.75ZM0.75 20.3304V21.3111H1.25V20.3304H0.75ZM0.834295 19.9323C0.778843 20.0574 0.75017 20.193 0.75 20.33L1.25 20.3307C1.25008 20.2629 1.26427 20.1961 1.29145 20.1348L0.834295 19.9323ZM1.07246 19.6036C0.970823 19.6949 0.889753 19.8071 0.834296 19.9323L1.29145 20.1348C1.31861 20.0734 1.35803 20.0192 1.40674 19.9754L1.07246 19.6036ZM2.76793 17.5445C2.29396 18.3063 1.72272 18.9997 1.06948 19.6063L1.40972 19.9727C2.09567 19.3357 2.6952 18.6079 3.19247 17.8086L2.76793 17.5445ZM3.6822 14.1896C3.59631 15.3667 3.28154 16.5142 2.75657 17.5648L3.20383 17.7883C3.75814 16.6791 4.09025 15.4679 4.18088 14.226L3.6822 14.1896ZM3.68154 10.6453V14.2078H4.18154V10.6453H3.68154ZM5.61025 5.35258C4.36246 6.82111 3.67771 8.70167 3.68154 10.6458L4.18154 10.6449C4.17794 8.81835 4.82134 7.05324 5.99128 5.67634L5.61025 5.35258ZM10.4713 2.6599C8.58494 2.9267 6.85816 3.88391 5.61025 5.35258L5.99128 5.67634C7.1611 4.29957 8.77781 3.4044 10.5414 3.15497L10.4713 2.6599ZM10.2564 1.96273V2.90743H10.7564V1.96273H10.2564ZM10.6031 1.10725C10.3804 1.3351 10.2564 1.64293 10.2564 1.96273H10.7564C10.7564 1.77187 10.8305 1.58995 10.9607 1.4567L10.6031 1.10725ZM11.4471 0.75C11.1294 0.75 10.8259 0.879205 10.6031 1.10725L10.9607 1.4567C11.0907 1.32366 11.2658 1.25 11.4471 1.25V0.75ZM12.2912 1.10725C12.0683 0.879205 11.7648 0.75 11.4471 0.75V1.25C11.6284 1.25 11.8035 1.32366 11.9335 1.4567L12.2912 1.10725ZM12.6379 1.96273C12.6379 1.64293 12.5138 1.3351 12.2912 1.10725L11.9335 1.4567C12.0638 1.58995 12.1379 1.77187 12.1379 1.96273H12.6379ZM12.6379 2.89301V1.96273H12.1379V2.89301H12.6379ZM17.3363 5.31911C16.0717 3.84547 14.3238 2.89399 12.4203 2.64512L12.3555 3.1409C14.135 3.37356 15.7714 4.26333 16.9568 5.64471L17.3363 5.31911ZM19.2902 10.646C19.295 8.6869 18.6007 6.7926 17.3363 5.31911L16.9568 5.64471C18.1423 7.02625 18.7948 8.80423 18.7902 10.6447L19.2902 10.646ZM19.2902 14.2078V10.6453H18.7902V14.2078H19.2902ZM20.2152 17.5648C19.6902 16.5142 19.3755 15.3667 19.2896 14.1896L18.7909 14.226C18.8815 15.4679 19.2136 16.6791 19.7679 17.7883L20.2152 17.5648ZM2.64153 20.7678C3.31141 20.1055 3.90111 19.3635 4.39802 18.5578L3.97244 18.2953C3.49631 19.0674 2.93144 19.7781 2.29001 20.4122L2.64153 20.7678ZM20.5412 20.34H2.46577V20.84H20.5412V20.34ZM18.609 18.5578C19.1059 19.3635 19.6956 20.1055 20.3655 20.7678L20.717 20.4122C20.0756 19.7781 19.5107 19.0674 19.0346 18.2953L18.609 18.5578ZM17.4095 14.2224C17.4979 15.733 17.9039 17.2064 18.6001 18.5421L19.0435 18.311C18.3801 17.0382 17.9929 15.6336 17.9086 14.1932L17.4095 14.2224ZM17.409 10.6453V14.2078H17.909V10.6453H17.409ZM17.0177 8.25667C17.3029 9.01508 17.436 9.82464 17.4092 10.6371L17.9089 10.6536C17.9379 9.77573 17.794 8.90075 17.4857 8.0807L17.0177 8.25667ZM15.7499 6.2231C16.3013 6.80674 16.7325 7.49828 17.0177 8.25667L17.4857 8.0807C17.1773 7.26063 16.7107 6.51208 16.1134 5.87974L15.7499 6.2231ZM13.809 4.85906C14.5384 5.17569 15.1986 5.63947 15.7499 6.2231L16.1134 5.87974C15.516 5.24739 14.8001 4.74419 14.008 4.4004L13.809 4.85906ZM11.5035 4.37935C12.2955 4.37935 13.0795 4.54244 13.809 4.85906L14.008 4.4004C13.216 4.05661 12.3642 3.87935 11.5035 3.87935V4.37935ZM9.19804 4.85906C9.9275 4.54244 10.7115 4.37935 11.5035 4.37935V3.87935C10.6428 3.87935 9.79101 4.05661 8.99896 4.4004L9.19804 4.85906ZM7.2571 6.2231C7.80844 5.63947 8.46858 5.17569 9.19804 4.85906L8.99896 4.4004C8.20693 4.74419 7.491 5.24739 6.89363 5.87974L7.2571 6.2231ZM5.98933 8.25667C6.2745 7.49828 6.70575 6.80674 7.2571 6.2231L6.89363 5.87974C6.29628 6.51208 5.82968 7.26063 5.52132 8.0807L5.98933 8.25667ZM5.59784 10.6371C5.57098 9.82464 5.70416 9.01508 5.98933 8.25667L5.52132 8.0807C5.21297 8.90075 5.06909 9.77573 5.09812 10.6536L5.59784 10.6371ZM5.59798 14.2078V10.6453H5.09798V14.2078H5.59798ZM4.40692 18.5421C5.10308 17.2064 5.50913 15.733 5.59755 14.2224L5.09841 14.1932C5.01409 15.6336 4.6269 17.0382 3.96353 18.311L4.40692 18.5421ZM11.3509 25.2496C11.8554 25.2377 12.3387 25.0436 12.7153 24.703L12.38 24.3321C12.0912 24.5933 11.7224 24.7407 11.3391 24.7498L11.3509 25.2496ZM9.93446 24.7295C10.3278 25.072 10.8304 25.2573 11.3487 25.2497L11.3413 24.7497C10.9475 24.7555 10.5642 24.6148 10.2628 24.3524L9.93446 24.7295ZM9.20899 23.3911C9.28399 23.9114 9.54125 24.3872 9.93446 24.7295L10.2628 24.3524C9.96119 24.0899 9.76202 23.7231 9.70387 23.3198L9.20899 23.3911ZM13.1631 23.1055H9.45643V23.6055H13.1631V23.1055ZM12.7153 24.703C13.0919 24.3624 13.3376 23.8976 13.4106 23.3911L12.9157 23.3198C12.8591 23.7125 12.6689 24.0708 12.38 24.3321L12.7153 24.703Z" fill="#334D5C"/>
<ellipse cx="16.75" cy="9.84169" rx="5.25" ry="5.05263" fill="#20BDB5"/>
</svg>
