<svg width="40" height="40" viewBox="0 0 40 40" fill="none" xmlns="http://www.w3.org/2000/svg">
<g clip-path="url(#clip0_1301_324)">
<path d="M20 40C31.0457 40 40 31.0457 40 20C40 8.95431 31.0457 0 20 0C8.95431 0 0 8.95431 0 20C0 31.0457 8.95431 40 20 40Z" fill="#FD8469"/>
<path d="M20.0943 28.5664C20.0628 28.5664 20.0313 28.5979 19.9998 28.5979C19.9683 28.5979 19.9368 28.5664 19.9053 28.5664H20.0943Z" fill="#84DBFF"/>
<path d="M35.5275 32.5983C31.8739 37.1022 26.2676 39.9998 19.9999 39.9998C13.7322 39.9998 8.12589 37.1022 4.47235 32.5983C7.08652 29.1022 11.0865 27.3699 14.3621 26.5195C14.1101 28.5983 15.181 31.3699 15.2125 31.3069C16.3149 28.7872 19.9999 28.5668 19.9999 28.5668C19.9999 28.5668 23.685 28.7872 24.7558 31.3069C24.7873 31.3699 25.8897 28.5983 25.6062 26.5195C28.9133 27.3699 32.9448 29.1022 35.5275 32.5983Z" fill="#84DBFF"/>
<path d="M24.504 24.5672C24.504 24.5672 24.504 24.5672 24.504 24.5987C24.504 24.9137 24.3465 26.9294 20.0945 28.5357H19.9056C15.6536 26.9294 15.4961 24.9137 15.4961 24.5987C15.4961 24.5672 15.4961 24.5672 15.4961 24.5672C15.4961 24.1578 15.5906 23.7483 15.6851 23.3389C16.9134 24.8822 18.3938 25.9215 20.0001 25.9215C21.6064 25.9215 23.0867 24.8822 24.315 23.3389C24.4095 23.7483 24.504 24.1578 24.504 24.5672Z" fill="white"/>
<path d="M24.5039 24.5674C24.5039 24.5674 24.7244 26.8351 20 28.5989C20 28.5989 23.685 28.8194 24.7559 31.339C24.8189 31.402 26.9291 25.9217 24.5039 24.5674Z" fill="#54C0EB"/>
<path d="M15.496 24.5674C13.0708 25.9217 15.181 31.402 15.244 31.3075C16.3464 28.7879 19.9999 28.5674 19.9999 28.5674C15.2755 26.8351 15.496 24.5674 15.496 24.5674Z" fill="#54C0EB"/>
<path d="M26.6143 16.5985C26.3308 18.5513 25.4804 20.378 24.0631 21.7639C23.7796 22.0473 23.5277 22.2678 23.2127 22.4883L22.7088 20.882H17.2914L16.7875 22.4883C15.7796 21.7324 13.6694 19.6221 13.6379 17.6379C12.756 6.33079 21.4174 8.72449 21.4174 8.72449C27.2442 8.31504 27.0552 13.4489 26.6143 16.5985Z" fill="white"/>
<path d="M27.7794 18.6457C27.3385 19.3701 26.7401 19.874 26.1731 20.063C26.3936 19.5591 26.5826 19.0236 26.7401 18.4882C26.7401 18.4882 26.7401 18.4882 26.7401 18.4567C26.866 17.9843 26.992 17.5118 27.118 17.0394H27.0865C27.2125 16.567 27.3385 16.0945 27.433 15.6221C27.559 15.6221 27.6849 15.6851 27.8109 15.7481C28.5038 16.189 28.4723 17.4803 27.7794 18.6457Z" fill="white"/>
<path d="M13.8268 20.0633C13.2598 19.8743 12.6614 19.3703 12.2205 18.6459C11.4961 17.4806 11.4961 16.1892 12.189 15.7798C12.252 15.7483 12.2835 15.7168 12.3465 15.7168C12.7244 17.1971 13.1653 18.2995 13.2598 18.5199C13.4173 19.0239 13.6063 19.5593 13.8268 20.0633Z" fill="white"/>
<path d="M23.4332 5.57446C23.6852 2.67682 19.0868 2.8658 19.0868 2.8658C12.1261 3.87367 11.3702 10.3619 11.3702 10.3619L12.3151 9.228C10.8348 12.4721 13.071 18.0469 13.26 18.4878C14.4254 22.3619 17.008 25.9209 20.0002 25.9209C22.9923 25.9209 25.575 22.3619 26.7403 18.4878C26.7403 18.4878 26.7403 18.4878 26.7403 18.4563C26.8663 17.9839 26.9923 17.5115 27.0868 17.039H27.0553C27.6852 14.5193 28.3781 11.9682 28.3781 11.9682C30.1734 2.92879 23.4332 5.57446 23.4332 5.57446ZM26.6143 16.5981C26.3309 18.5508 25.4805 20.3776 24.0632 21.7634C23.7797 22.0469 23.4962 22.2674 23.2128 22.4878L22.7088 20.913H17.2915L16.7876 22.5193C15.7797 21.7634 14.9293 20.7241 14.2364 19.5272C13.9214 18.8973 13.7324 18.2359 13.638 17.6689C12.7561 6.36186 21.4175 8.75556 21.4175 8.75556C27.2443 8.31462 27.0553 13.4485 26.6143 16.5981Z" fill="#324A5E"/>
<path d="M23.4332 5.57446C23.6852 2.67682 19.0868 2.8658 19.0868 2.8658C12.1261 3.87367 11.3702 10.3619 11.3702 10.3619L12.3151 9.228C10.8348 12.4721 13.071 18.0469 13.26 18.4878C14.4254 22.3619 17.008 25.9209 20.0002 25.9209C22.9923 25.9209 25.575 22.3619 26.7403 18.4878C26.7403 18.4878 26.7403 18.4878 26.7403 18.4563C26.8663 17.9839 26.9923 17.5115 27.0868 17.039H27.0553C27.6852 14.5193 28.3781 11.9682 28.3781 11.9682C30.1734 2.92879 23.4332 5.57446 23.4332 5.57446ZM26.6143 16.5981C26.3309 18.5508 25.4805 20.3776 24.0632 21.7634C23.7797 22.0469 23.4962 22.2674 23.2128 22.4878L22.7088 20.913H17.2915L16.7876 22.5193C15.7797 21.7634 14.9293 20.7241 14.2364 19.5272C13.9214 18.8973 13.7324 18.2359 13.638 17.6689C12.7561 6.36186 21.4175 8.75556 21.4175 8.75556C27.2443 8.31462 27.0553 13.4485 26.6143 16.5981Z" fill="#324A5E"/>
<path d="M23.4332 5.57446C23.6852 2.67682 19.0868 2.8658 19.0868 2.8658C12.1261 3.87367 11.3702 10.3619 11.3702 10.3619L12.3151 9.228C10.8348 12.4721 13.071 18.0469 13.26 18.4878C14.4254 22.3619 17.008 25.9209 20.0002 25.9209C22.9923 25.9209 25.575 22.3619 26.7403 18.4878C26.7403 18.4878 26.7403 18.4878 26.7403 18.4563C26.8663 17.9839 26.9923 17.5115 27.0868 17.039H27.0553C27.6852 14.5193 28.3781 11.9682 28.3781 11.9682C30.1734 2.92879 23.4332 5.57446 23.4332 5.57446ZM26.6143 16.5981C26.3309 18.5508 25.4805 20.3776 24.0632 21.7634C23.7797 22.0469 23.4962 22.2674 23.2128 22.4878L22.7088 20.913H17.2915L16.7876 22.5193C15.7797 21.7634 13.6695 19.6532 13.638 17.6689C12.7561 6.36186 21.4175 8.75556 21.4175 8.75556C27.2443 8.31462 27.0553 13.4485 26.6143 16.5981Z" fill="#324A5E"/>
<path d="M17.7954 21.9844C18.3308 22.5828 19.1182 22.9922 20.0001 22.9922C20.882 22.9922 21.6694 22.6143 22.2049 21.9844H17.7954Z" fill="white"/>
</g>
<defs>
<clipPath id="clip0_1301_324">
<rect width="40" height="40" fill="white"/>
</clipPath>
</defs>
</svg>
