<svg width="26" height="22" viewBox="0 0 26 22" fill="none" xmlns="http://www.w3.org/2000/svg">
<path opacity="0.6" d="M26 2.60431C25.0433 3.04601 24.0153 3.34453 22.9363 3.47883C24.0377 2.79148 24.8834 1.70304 25.2816 0.40617C24.2346 1.05311 23.089 1.50892 21.8944 1.7539C20.9214 0.674553 19.5351 0 18.0008 0C15.0549 0 12.6665 2.48672 12.6665 5.55377C12.6665 5.98913 12.7137 6.41296 12.8046 6.81955C8.37139 6.58786 4.44092 4.37682 1.80995 1.01664C1.35088 1.83691 1.08784 2.79106 1.08784 3.80875C1.08784 5.73566 2.02962 7.43552 3.46084 8.43154C2.61376 8.40392 1.78532 8.1657 1.04467 7.73679C1.04437 7.76005 1.04437 7.78332 1.04437 7.80669C1.04437 10.4976 2.88305 12.7424 5.32319 13.2526C4.5377 13.475 3.71376 13.5076 2.91434 13.3478C3.59308 15.5543 5.56309 17.1599 7.8972 17.2048C6.07161 18.6944 3.77152 19.5823 1.27248 19.5823C0.841852 19.5823 0.41732 19.556 0 19.5047C2.36062 21.0805 5.16445 22 8.1768 22C17.9884 22 23.3537 13.5371 23.3537 6.19787C23.3537 5.95698 23.3486 5.71747 23.3383 5.47933C24.3825 4.6933 25.2839 3.71973 26 2.60431Z" fill="white"/>
</svg>
